<svg width="75" height="75" viewBox="0 0 75 75" fill="none" xmlns="http://www.w3.org/2000/svg">
<path d="M6.25 24.3437L6.25 30.2656L31.25 50L31.25 62.5C31.25 64.1576 31.9085 65.7473 33.0806 66.9194C34.2527 68.0915 35.8424 68.75 37.5 68.75C39.1576 68.75 40.7473 68.0915 41.9194 66.9194C43.0915 65.7473 43.75 64.1576 43.75 62.5L43.75 49.6719L68.75 29.9375L68.75 24.3469L43.75 33.1281L43.75 18.75L53.125 12.5L53.125 6.25L37.5 12.5L21.875 6.25L21.875 12.5L31.25 18.75L31.25 33.3906L6.25 24.3437Z" fill="#C5AFFF"/>
</svg>
