<svg width="82" height="83" viewBox="0 0 82 83" fill="none" xmlns="http://www.w3.org/2000/svg">
<path d="M68.3333 31.2502V24.4168H13.6666V31.2502H68.3333ZM68.3333 41.5002H13.6666V58.5835H68.3333V41.5002ZM13.6666 17.5835H68.3333C70.1456 17.5835 71.8837 18.3034 73.1652 19.5849C74.4467 20.8664 75.1666 22.6045 75.1666 24.4168V58.5835C75.1666 60.3958 74.4467 62.1339 73.1652 63.4154C71.8837 64.6969 70.1456 65.4168 68.3333 65.4168H13.6666C11.8543 65.4168 10.1162 64.6969 8.83475 63.4154C7.55325 62.1339 6.83331 60.3958 6.83331 58.5835V24.4168C6.83331 22.6045 7.55325 20.8664 8.83475 19.5849C10.1162 18.3034 11.8543 17.5835 13.6666 17.5835V17.5835ZM20.5 48.3335H23.9166C24.8228 48.3335 25.6918 48.6935 26.3326 49.3342C26.9733 49.975 27.3333 50.844 27.3333 51.7502C27.3333 52.6563 26.9733 53.5254 26.3326 54.1661C25.6918 54.8069 24.8228 55.1668 23.9166 55.1668H20.5C19.5938 55.1668 18.7248 54.8069 18.084 54.1661C17.4433 53.5254 17.0833 52.6563 17.0833 51.7502C17.0833 50.844 17.4433 49.975 18.084 49.3342C18.7248 48.6935 19.5938 48.3335 20.5 48.3335V48.3335ZM37.5833 48.3335H54.6666C55.5728 48.3335 56.4418 48.6935 57.0826 49.3342C57.7233 49.975 58.0833 50.844 58.0833 51.7502C58.0833 52.6563 57.7233 53.5254 57.0826 54.1661C56.4418 54.8069 55.5728 55.1668 54.6666 55.1668H37.5833C36.6772 55.1668 35.8081 54.8069 35.1674 54.1661C34.5266 53.5254 34.1666 52.6563 34.1666 51.7502C34.1666 50.844 34.5266 49.975 35.1674 49.3342C35.8081 48.6935 36.6772 48.3335 37.5833 48.3335V48.3335Z" fill="#C5AFFF"/>
</svg>
