<svg width="130" height="130" viewBox="0 0 130 130" fill="none" xmlns="http://www.w3.org/2000/svg">
<circle cx="65" cy="65" r="65" fill="#202020"/>
<path d="M65.1893 61.5038L78.3893 48.3038C78.6353 48.0492 78.9296 47.846 79.2549 47.7062C79.5803 47.5665 79.9302 47.4929 80.2843 47.4898C80.6384 47.4868 80.9895 47.5542 81.3172 47.6883C81.6449 47.8224 81.9427 48.0204 82.1931 48.2708C82.4434 48.5212 82.6415 48.8189 82.7755 49.1466C82.9096 49.4744 82.9771 49.8255 82.974 50.1796C82.9709 50.5337 82.8974 50.8836 82.7576 51.2089C82.6179 51.5343 82.4147 51.8285 82.16 52.0745L67.0747 67.1598C66.5746 67.6598 65.8964 67.9406 65.1893 67.9406C64.4822 67.9406 63.8041 67.6598 63.304 67.1598L48.2187 52.0745C47.964 51.8285 47.7608 51.5343 47.6211 51.2089C47.4813 50.8836 47.4077 50.5337 47.4047 50.1796C47.4016 49.8255 47.4691 49.4744 47.6031 49.1466C47.7372 48.8189 47.9352 48.5212 48.1856 48.2708C48.436 48.0204 48.7337 47.8224 49.0615 47.6883C49.3892 47.5542 49.7403 47.4868 50.0944 47.4898C50.4485 47.4929 50.7984 47.5665 51.1238 47.7062C51.4491 47.846 51.7433 48.0492 51.9893 48.3038L65.1893 61.5038Z" fill="#C5AFFF"/>
<path d="M65.1893 68.4962L78.3893 81.6962C78.6353 81.9508 78.9296 82.154 79.2549 82.2938C79.5803 82.4335 79.9302 82.5071 80.2843 82.5102C80.6384 82.5132 80.9895 82.4458 81.3172 82.3117C81.6449 82.1776 81.9427 81.9796 82.1931 81.7292C82.4434 81.4788 82.6415 81.1811 82.7755 80.8534C82.9096 80.5256 82.9771 80.1745 82.974 79.8204C82.9709 79.4663 82.8974 79.1164 82.7576 78.7911C82.6179 78.4657 82.4147 78.1715 82.16 77.9255L67.0747 62.8402C66.5746 62.3402 65.8964 62.0594 65.1893 62.0594C64.4822 62.0594 63.8041 62.3402 63.304 62.8402L48.2187 77.9255C47.964 78.1715 47.7608 78.4657 47.6211 78.7911C47.4813 79.1164 47.4077 79.4663 47.4047 79.8204C47.4016 80.1745 47.4691 80.5256 47.6031 80.8534C47.7372 81.1811 47.9352 81.4788 48.1856 81.7292C48.436 81.9796 48.7337 82.1776 49.0615 82.3117C49.3892 82.4458 49.7403 82.5132 50.0944 82.5102C50.4485 82.5071 50.7984 82.4335 51.1238 82.2938C51.4491 82.154 51.7433 81.9508 51.9893 81.6962L65.1893 68.4962Z" fill="#C5AFFF"/>
</svg>
