<svg width="37" height="31" viewBox="0 0 37 31" fill="none" xmlns="http://www.w3.org/2000/svg">
<path d="M10.7115 -3.13487e-07L14.2173 -2.71682e-07L25.9 12.4L33.3 12.4C34.2813 12.4 35.2224 12.7266 35.9163 13.308C36.6102 13.8893 37 14.6778 37 15.5C37 16.3222 36.6102 17.1107 35.9163 17.692C35.2224 18.2734 34.2813 18.6 33.3 18.6L25.7058 18.6L14.023 31L10.7134 31L15.9119 18.6L7.4 18.6L3.7 23.25L9.24178e-08 23.25L3.7 15.5L2.77253e-07 7.75L3.7 7.75L7.4 12.4L16.0673 12.4L10.7115 -3.13487e-07Z" fill="#C8FF29"/>
</svg>
