<svg width="886" height="148" viewBox="0 0 886 148" fill="none" xmlns="http://www.w3.org/2000/svg">
<path d="M1.44 23L4.692 6.2H5.916L10.62 18.56L15.3 6.2H16.524L19.788 23H18.072L15.588 10.148L11.148 21.896H10.068L5.628 10.148L3.144 23H1.44ZM29.865 23.312C28.729 23.312 27.661 23.088 26.661 22.64C25.661 22.184 24.781 21.556 24.021 20.756C23.261 19.956 22.665 19.032 22.233 17.984C21.801 16.928 21.585 15.8 21.585 14.6C21.585 13.4 21.801 12.276 22.233 11.228C22.665 10.172 23.261 9.244 24.021 8.444C24.781 7.644 25.661 7.02 26.661 6.572C27.661 6.116 28.729 5.888 29.865 5.888C31.009 5.888 32.081 6.116 33.081 6.572C34.081 7.02 34.961 7.644 35.721 8.444C36.481 9.244 37.073 10.172 37.497 11.228C37.929 12.276 38.145 13.4 38.145 14.6C38.145 15.8 37.929 16.928 37.497 17.984C37.073 19.032 36.481 19.956 35.721 20.756C34.961 21.556 34.081 22.184 33.081 22.64C32.081 23.088 31.009 23.312 29.865 23.312ZM29.865 21.632C30.785 21.632 31.641 21.448 32.433 21.08C33.233 20.704 33.933 20.192 34.533 19.544C35.141 18.896 35.613 18.148 35.949 17.3C36.293 16.452 36.465 15.552 36.465 14.6C36.465 13.64 36.293 12.736 35.949 11.888C35.605 11.032 35.129 10.284 34.521 9.644C33.921 8.996 33.221 8.488 32.421 8.12C31.629 7.752 30.777 7.568 29.865 7.568C28.945 7.568 28.085 7.756 27.285 8.132C26.493 8.5 25.793 9.008 25.185 9.656C24.585 10.304 24.113 11.052 23.769 11.9C23.433 12.748 23.265 13.648 23.265 14.6C23.265 15.568 23.437 16.476 23.781 17.324C24.125 18.172 24.597 18.92 25.197 19.568C25.805 20.216 26.505 20.724 27.297 21.092C28.097 21.452 28.953 21.632 29.865 21.632ZM40.5806 23V6.2H42.4046L51.2726 19.964V6.2H52.9526V23H51.1406L42.2606 9.236V23H40.5806Z" fill="#C5AFFF" fill-opacity="0.3"/>
<path d="M19.104 126.832C16.416 126.832 14.016 126.235 11.904 125.04C9.792 123.824 7.98933 122.149 6.496 120.016C5.00267 117.883 3.86133 115.419 3.072 112.624C2.304 109.808 1.92 106.8 1.92 103.6C1.92 100.4 2.304 97.392 3.072 94.576C3.86133 91.76 5.00267 89.296 6.496 87.184C7.98933 85.0507 9.792 83.3867 11.904 82.192C14.016 80.976 16.416 80.368 19.104 80.368C21.7707 80.368 24.16 80.976 26.272 82.192C28.384 83.3867 30.176 85.0507 31.648 87.184C33.12 89.296 34.24 91.76 35.008 94.576C35.7973 97.392 36.192 100.4 36.192 103.6C36.192 106.8 35.7973 109.808 35.008 112.624C34.24 115.419 33.12 117.883 31.648 120.016C30.176 122.149 28.384 123.824 26.272 125.04C24.16 126.235 21.7707 126.832 19.104 126.832ZM19.104 122.352C21.92 122.352 24.2773 121.488 26.176 119.76C28.096 118.032 29.536 115.749 30.496 112.912C31.456 110.053 31.936 106.949 31.936 103.6C31.936 100.059 31.4347 96.88 30.432 94.064C29.4507 91.2267 28 88.9867 26.08 87.344C24.1813 85.68 21.856 84.848 19.104 84.848C16.928 84.848 15.0293 85.3493 13.408 86.352C11.7867 87.3547 10.4427 88.7307 9.376 90.48C8.30933 92.2293 7.50933 94.2347 6.976 96.496C6.44267 98.736 6.176 101.104 6.176 103.6C6.176 106.971 6.66667 110.085 7.648 112.944C8.62933 115.781 10.08 118.064 12 119.792C13.92 121.499 16.288 122.352 19.104 122.352ZM48.365 126V85.68H43.565L44.845 81.2H52.845V126H48.365Z" fill="#C5AFFF" fill-opacity="0.3"/>
<path d="M166.148 6.2V7.88H160.388V23H158.708V7.88H152.96V6.2H166.148ZM175.073 23.312C173.729 23.312 172.569 22.984 171.593 22.328C170.617 21.672 169.865 20.792 169.337 19.688C168.817 18.576 168.557 17.344 168.557 15.992V6.2H170.237V15.992C170.237 17.016 170.425 17.956 170.801 18.812C171.177 19.668 171.725 20.352 172.445 20.864C173.165 21.376 174.041 21.632 175.073 21.632C176.129 21.632 177.013 21.376 177.725 20.864C178.445 20.344 178.989 19.656 179.357 18.8C179.725 17.944 179.909 17.008 179.909 15.992V6.2H181.589V15.992C181.589 17.008 181.437 17.96 181.133 18.848C180.837 19.728 180.405 20.504 179.837 21.176C179.277 21.848 178.593 22.372 177.785 22.748C176.985 23.124 176.081 23.312 175.073 23.312ZM184.354 23V6.2H194.578V7.88H186.034V13.16H193.102V14.84H186.034V21.32H194.578V23H184.354Z" fill="#C5AFFF" fill-opacity="0.5"/>
<path d="M156.104 126.832C153.416 126.832 151.016 126.235 148.904 125.04C146.792 123.824 144.989 122.149 143.496 120.016C142.003 117.883 140.861 115.419 140.072 112.624C139.304 109.808 138.92 106.8 138.92 103.6C138.92 100.4 139.304 97.392 140.072 94.576C140.861 91.76 142.003 89.296 143.496 87.184C144.989 85.0507 146.792 83.3867 148.904 82.192C151.016 80.976 153.416 80.368 156.104 80.368C158.771 80.368 161.16 80.976 163.272 82.192C165.384 83.3867 167.176 85.0507 168.648 87.184C170.12 89.296 171.24 91.76 172.008 94.576C172.797 97.392 173.192 100.4 173.192 103.6C173.192 106.8 172.797 109.808 172.008 112.624C171.24 115.419 170.12 117.883 168.648 120.016C167.176 122.149 165.384 123.824 163.272 125.04C161.16 126.235 158.771 126.832 156.104 126.832ZM156.104 122.352C158.92 122.352 161.277 121.488 163.176 119.76C165.096 118.032 166.536 115.749 167.496 112.912C168.456 110.053 168.936 106.949 168.936 103.6C168.936 100.059 168.435 96.88 167.432 94.064C166.451 91.2267 165 88.9867 163.08 87.344C161.181 85.68 158.856 84.848 156.104 84.848C153.928 84.848 152.029 85.3493 150.408 86.352C148.787 87.3547 147.443 88.7307 146.376 90.48C145.309 92.2293 144.509 94.2347 143.976 96.496C143.443 98.736 143.176 101.104 143.176 103.6C143.176 106.971 143.667 110.085 144.648 112.944C145.629 115.781 147.08 118.064 149 119.792C150.92 121.499 153.288 122.352 156.104 122.352ZM177.685 126V122.032C179.434 120.411 181.354 118.64 183.445 116.72C185.536 114.779 187.605 112.784 189.653 110.736C191.722 108.667 193.61 106.629 195.317 104.624C197.024 102.597 198.389 100.688 199.413 98.896C200.458 97.0827 200.981 95.4827 200.981 94.096C200.981 92.4107 200.565 90.8747 199.733 89.488C198.922 88.08 197.824 86.96 196.437 86.128C195.072 85.2747 193.546 84.848 191.861 84.848C190.176 84.848 188.629 85.2747 187.221 86.128C185.834 86.96 184.725 88.08 183.893 89.488C183.061 90.8747 182.645 92.4107 182.645 94.096H178.165C178.165 91.536 178.784 89.2213 180.021 87.152C181.28 85.0827 182.944 83.44 185.013 82.224C187.082 80.9867 189.365 80.368 191.861 80.368C194.357 80.368 196.629 80.9867 198.677 82.224C200.746 83.4613 202.389 85.1147 203.605 87.184C204.842 89.2533 205.461 91.5573 205.461 94.096C205.461 95.6107 205.056 97.2747 204.245 99.088C203.456 100.88 202.378 102.747 201.013 104.688C199.648 106.608 198.112 108.549 196.405 110.512C194.698 112.475 192.917 114.395 191.061 116.272C189.205 118.128 187.402 119.877 185.653 121.52H206.133V126H177.685Z" fill="#C5AFFF" fill-opacity="0.5"/>
<path d="M287.86 29L283.564 12.2H285.292L288.844 26.108L292.384 12.2H293.872L297.424 26.108L300.964 12.2H302.692L298.42 29H296.428L293.128 16.1L289.828 29H287.86ZM304.854 29V12.2H315.078V13.88H306.534V19.16H313.602V20.84H306.534V27.32H315.078V29H304.854ZM317.885 29V12.2H323.441C324.601 12.2 325.689 12.42 326.705 12.86C327.721 13.292 328.613 13.896 329.381 14.672C330.149 15.44 330.749 16.332 331.181 17.348C331.621 18.356 331.841 19.44 331.841 20.6C331.841 21.76 331.621 22.848 331.181 23.864C330.749 24.872 330.149 25.764 329.381 26.54C328.613 27.308 327.721 27.912 326.705 28.352C325.689 28.784 324.601 29 323.441 29H317.885ZM319.565 27.32H323.441C324.369 27.32 325.237 27.148 326.045 26.804C326.861 26.452 327.577 25.968 328.193 25.352C328.809 24.736 329.289 24.024 329.633 23.216C329.985 22.4 330.161 21.528 330.161 20.6C330.161 19.672 329.985 18.804 329.633 17.996C329.289 17.18 328.805 16.464 328.181 15.848C327.565 15.232 326.853 14.752 326.045 14.408C325.237 14.056 324.369 13.88 323.441 13.88H319.565V27.32Z" fill="#C5AFFF" fill-opacity="0.6"/>
<path d="M294.104 132.832C291.416 132.832 289.016 132.235 286.904 131.04C284.792 129.824 282.989 128.149 281.496 126.016C280.003 123.883 278.861 121.419 278.072 118.624C277.304 115.808 276.92 112.8 276.92 109.6C276.92 106.4 277.304 103.392 278.072 100.576C278.861 97.76 280.003 95.296 281.496 93.184C282.989 91.0507 284.792 89.3867 286.904 88.192C289.016 86.976 291.416 86.368 294.104 86.368C296.771 86.368 299.16 86.976 301.272 88.192C303.384 89.3867 305.176 91.0507 306.648 93.184C308.12 95.296 309.24 97.76 310.008 100.576C310.797 103.392 311.192 106.4 311.192 109.6C311.192 112.8 310.797 115.808 310.008 118.624C309.24 121.419 308.12 123.883 306.648 126.016C305.176 128.149 303.384 129.824 301.272 131.04C299.16 132.235 296.771 132.832 294.104 132.832ZM294.104 128.352C296.92 128.352 299.277 127.488 301.176 125.76C303.096 124.032 304.536 121.749 305.496 118.912C306.456 116.053 306.936 112.949 306.936 109.6C306.936 106.059 306.435 102.88 305.432 100.064C304.451 97.2267 303 94.9867 301.08 93.344C299.181 91.68 296.856 90.848 294.104 90.848C291.928 90.848 290.029 91.3493 288.408 92.352C286.787 93.3547 285.443 94.7307 284.376 96.48C283.309 98.2293 282.509 100.235 281.976 102.496C281.443 104.736 281.176 107.104 281.176 109.6C281.176 112.971 281.667 116.085 282.648 118.944C283.629 121.781 285.08 124.064 287 125.792C288.92 127.499 291.288 128.352 294.104 128.352ZM328.837 132.832C326.106 132.832 323.706 132.235 321.637 131.04C319.568 129.824 317.946 128.203 316.773 126.176C315.621 124.149 315.045 121.909 315.045 119.456H319.525C319.525 121.077 319.898 122.571 320.645 123.936C321.413 125.28 322.49 126.357 323.877 127.168C325.264 127.957 326.917 128.352 328.837 128.352C330.458 128.352 331.973 127.957 333.381 127.168C334.81 126.357 335.962 125.28 336.837 123.936C337.733 122.571 338.181 121.077 338.181 119.456C338.181 117.429 337.669 115.744 336.645 114.4C335.621 113.035 334.213 112.021 332.421 111.36C330.629 110.677 328.581 110.336 326.277 110.336V106.624C329.456 106.624 332.005 105.952 333.925 104.608C335.866 103.243 336.837 101.248 336.837 98.624C336.837 97.1947 336.442 95.8933 335.653 94.72C334.885 93.5467 333.872 92.608 332.613 91.904C331.376 91.1787 330.042 90.816 328.613 90.816C327.184 90.816 325.808 91.1787 324.485 91.904C323.184 92.608 322.117 93.5467 321.285 94.72C320.474 95.8933 320.069 97.1947 320.069 98.624H315.589C315.589 96.9387 315.941 95.36 316.645 93.888C317.349 92.3947 318.309 91.0827 319.525 89.952C320.741 88.8213 322.128 87.936 323.685 87.296C325.242 86.656 326.874 86.336 328.581 86.336C330.821 86.336 332.901 86.8907 334.821 88C336.762 89.1093 338.33 90.592 339.525 92.448C340.72 94.304 341.317 96.3627 341.317 98.624C341.317 100.821 340.752 102.805 339.621 104.576C338.49 106.347 336.965 107.595 335.045 108.32C336.709 108.875 338.106 109.717 339.237 110.848C340.368 111.957 341.221 113.248 341.797 114.72C342.373 116.192 342.661 117.771 342.661 119.456C342.661 121.909 342.021 124.149 340.741 126.176C339.461 128.203 337.765 129.824 335.653 131.04C333.562 132.235 331.29 132.832 328.837 132.832Z" fill="#C5AFFF" fill-opacity="0.6"/>
<path d="M560.104 132.832C557.416 132.832 555.016 132.235 552.904 131.04C550.792 129.824 548.989 128.149 547.496 126.016C546.003 123.883 544.861 121.419 544.072 118.624C543.304 115.808 542.92 112.8 542.92 109.6C542.92 106.4 543.304 103.392 544.072 100.576C544.861 97.76 546.003 95.296 547.496 93.184C548.989 91.0507 550.792 89.3867 552.904 88.192C555.016 86.976 557.416 86.368 560.104 86.368C562.771 86.368 565.16 86.976 567.272 88.192C569.384 89.3867 571.176 91.0507 572.648 93.184C574.12 95.296 575.24 97.76 576.008 100.576C576.797 103.392 577.192 106.4 577.192 109.6C577.192 112.8 576.797 115.808 576.008 118.624C575.24 121.419 574.12 123.883 572.648 126.016C571.176 128.149 569.384 129.824 567.272 131.04C565.16 132.235 562.771 132.832 560.104 132.832ZM560.104 128.352C562.92 128.352 565.277 127.488 567.176 125.76C569.096 124.032 570.536 121.749 571.496 118.912C572.456 116.053 572.936 112.949 572.936 109.6C572.936 106.059 572.435 102.88 571.432 100.064C570.451 97.2267 569 94.9867 567.08 93.344C565.181 91.68 562.856 90.848 560.104 90.848C557.928 90.848 556.029 91.3493 554.408 92.352C552.787 93.3547 551.443 94.7307 550.376 96.48C549.309 98.2293 548.509 100.235 547.976 102.496C547.443 104.736 547.176 107.104 547.176 109.6C547.176 112.971 547.667 116.085 548.648 118.944C549.629 121.781 551.08 124.064 553 125.792C554.92 127.499 557.288 128.352 560.104 128.352ZM596.053 132.832C593.322 132.832 590.837 132.171 588.597 130.848C586.378 129.525 584.618 127.755 583.317 125.536C582.016 123.296 581.365 120.843 581.365 118.176H585.845C585.845 120.032 586.304 121.739 587.221 123.296C588.138 124.832 589.365 126.059 590.901 126.976C592.458 127.893 594.176 128.352 596.053 128.352C597.909 128.352 599.605 127.893 601.141 126.976C602.677 126.059 603.904 124.832 604.821 123.296C605.76 121.739 606.229 120.032 606.229 118.176C606.229 116.299 605.781 114.592 604.885 113.056C604.01 111.499 602.762 110.261 601.141 109.344C599.541 108.405 597.632 107.936 595.413 107.936H584.533L588.757 87.2H609.717V91.68H592.373L590.037 103.456L595.253 103.488C598.304 103.531 600.981 104.181 603.285 105.44C605.61 106.699 607.424 108.427 608.725 110.624C610.048 112.8 610.709 115.317 610.709 118.176C610.709 120.181 610.325 122.069 609.557 123.84C608.81 125.611 607.754 127.179 606.389 128.544C605.045 129.888 603.488 130.944 601.717 131.712C599.968 132.459 598.08 132.832 596.053 132.832Z" fill="#C5AFFF" fill-opacity="0.6"/>
<path d="M560.44 29V12.2H570.268V13.88H562.12V19.16H569.116V20.84H562.12V29H560.44ZM572.112 29V12.2H577.812C578.708 12.2 579.516 12.42 580.236 12.86C580.956 13.292 581.528 13.88 581.952 14.624C582.376 15.36 582.588 16.188 582.588 17.108C582.588 17.932 582.42 18.68 582.084 19.352C581.748 20.024 581.288 20.58 580.704 21.02C580.128 21.46 579.476 21.752 578.748 21.896L582.852 29H580.908L576.864 22.028H573.792V29H572.112ZM573.792 20.348H577.668C578.26 20.348 578.8 20.204 579.288 19.916C579.784 19.62 580.176 19.224 580.464 18.728C580.76 18.224 580.908 17.656 580.908 17.024C580.908 16.392 580.76 15.828 580.464 15.332C580.176 14.828 579.784 14.432 579.288 14.144C578.8 13.848 578.26 13.7 577.668 13.7H573.792V20.348ZM586.183 29V12.2H587.863V29H586.183Z" fill="#C5AFFF" fill-opacity="0.6"/>
<path d="M695.104 132.832C692.416 132.832 690.016 132.235 687.904 131.04C685.792 129.824 683.989 128.149 682.496 126.016C681.003 123.883 679.861 121.419 679.072 118.624C678.304 115.808 677.92 112.8 677.92 109.6C677.92 106.4 678.304 103.392 679.072 100.576C679.861 97.76 681.003 95.296 682.496 93.184C683.989 91.0507 685.792 89.3867 687.904 88.192C690.016 86.976 692.416 86.368 695.104 86.368C697.771 86.368 700.16 86.976 702.272 88.192C704.384 89.3867 706.176 91.0507 707.648 93.184C709.12 95.296 710.24 97.76 711.008 100.576C711.797 103.392 712.192 106.4 712.192 109.6C712.192 112.8 711.797 115.808 711.008 118.624C710.24 121.419 709.12 123.883 707.648 126.016C706.176 128.149 704.384 129.824 702.272 131.04C700.16 132.235 697.771 132.832 695.104 132.832ZM695.104 128.352C697.92 128.352 700.277 127.488 702.176 125.76C704.096 124.032 705.536 121.749 706.496 118.912C707.456 116.053 707.936 112.949 707.936 109.6C707.936 106.059 707.435 102.88 706.432 100.064C705.451 97.2267 704 94.9867 702.08 93.344C700.181 91.68 697.856 90.848 695.104 90.848C692.928 90.848 691.029 91.3493 689.408 92.352C687.787 93.3547 686.443 94.7307 685.376 96.48C684.309 98.2293 683.509 100.235 682.976 102.496C682.443 104.736 682.176 107.104 682.176 109.6C682.176 112.971 682.667 116.085 683.648 118.944C684.629 121.781 686.08 124.064 688 125.792C689.92 127.499 692.288 128.352 695.104 128.352ZM731.149 132.832C728.333 132.832 725.752 132.139 723.405 130.752C721.08 129.344 719.213 127.467 717.805 125.12C716.418 122.773 715.725 120.181 715.725 117.344C715.725 115.701 715.917 114.304 716.301 113.152C716.685 111.979 717.25 110.677 717.997 109.248L730.701 87.2H735.917L726.605 103.328C728.482 102.603 730.37 102.283 732.269 102.368C734.168 102.432 735.981 102.848 737.709 103.616C739.437 104.384 740.973 105.44 742.317 106.784C743.661 108.107 744.717 109.664 745.485 111.456C746.274 113.248 746.669 115.211 746.669 117.344C746.669 119.477 746.264 121.483 745.453 123.36C744.642 125.216 743.522 126.859 742.093 128.288C740.685 129.696 739.042 130.805 737.165 131.616C735.288 132.427 733.282 132.832 731.149 132.832ZM731.149 128.352C733.282 128.352 735.181 127.84 736.845 126.816C738.509 125.771 739.81 124.405 740.749 122.72C741.709 121.035 742.189 119.232 742.189 117.312C742.189 115.307 741.698 113.483 740.717 111.84C739.736 110.176 738.413 108.853 736.749 107.872C735.085 106.869 733.24 106.368 731.213 106.368C729.122 106.368 727.245 106.88 725.581 107.904C723.917 108.928 722.605 110.272 721.645 111.936C720.685 113.579 720.205 115.371 720.205 117.312C720.205 119.403 720.706 121.28 721.709 122.944C722.733 124.608 724.077 125.931 725.741 126.912C727.405 127.872 729.208 128.352 731.149 128.352Z" fill="#C5AFFF" fill-opacity="0.3"/>
<path d="M697.308 29.312C696.412 29.312 695.544 29.172 694.704 28.892C693.872 28.612 693.144 28.212 692.52 27.692C691.896 27.172 691.456 26.552 691.2 25.832L692.772 25.244C692.948 25.74 693.268 26.168 693.732 26.528C694.204 26.88 694.752 27.152 695.376 27.344C696.008 27.536 696.652 27.632 697.308 27.632C698.076 27.632 698.792 27.504 699.456 27.248C700.12 26.992 700.656 26.636 701.064 26.18C701.472 25.716 701.676 25.172 701.676 24.548C701.676 23.916 701.464 23.396 701.04 22.988C700.616 22.58 700.068 22.26 699.396 22.028C698.732 21.788 698.036 21.604 697.308 21.476C696.164 21.276 695.136 21.004 694.224 20.66C693.32 20.316 692.604 19.832 692.076 19.208C691.548 18.576 691.284 17.744 691.284 16.712C691.284 15.744 691.564 14.904 692.124 14.192C692.684 13.48 693.42 12.928 694.332 12.536C695.252 12.144 696.244 11.948 697.308 11.948C698.18 11.948 699.032 12.084 699.864 12.356C700.696 12.628 701.428 13.024 702.06 13.544C702.7 14.064 703.16 14.7 703.44 15.452L701.844 16.028C701.668 15.524 701.344 15.096 700.872 14.744C700.408 14.384 699.864 14.112 699.24 13.928C698.616 13.736 697.972 13.64 697.308 13.64C696.548 13.632 695.836 13.76 695.172 14.024C694.516 14.28 693.984 14.64 693.576 15.104C693.168 15.56 692.964 16.096 692.964 16.712C692.964 17.432 693.152 17.988 693.528 18.38C693.912 18.764 694.432 19.052 695.088 19.244C695.744 19.436 696.484 19.608 697.308 19.76C698.38 19.944 699.376 20.232 700.296 20.624C701.216 21.008 701.956 21.524 702.516 22.172C703.076 22.812 703.356 23.604 703.356 24.548C703.356 25.508 703.076 26.348 702.516 27.068C701.956 27.78 701.216 28.332 700.296 28.724C699.384 29.116 698.388 29.312 697.308 29.312ZM710.521 12.2H712.609L718.729 29H716.941L715.633 25.4H707.509L706.201 29H704.413L710.521 12.2ZM708.121 23.72H715.009L711.565 14.264L708.121 23.72ZM731.757 12.2V13.88H725.997V29H724.317V13.88H718.569V12.2H731.757Z" fill="#C5AFFF" fill-opacity="0.5"/>
<path d="M829.104 132.832C826.416 132.832 824.016 132.235 821.904 131.04C819.792 129.824 817.989 128.149 816.496 126.016C815.003 123.883 813.861 121.419 813.072 118.624C812.304 115.808 811.92 112.8 811.92 109.6C811.92 106.4 812.304 103.392 813.072 100.576C813.861 97.76 815.003 95.296 816.496 93.184C817.989 91.0507 819.792 89.3867 821.904 88.192C824.016 86.976 826.416 86.368 829.104 86.368C831.771 86.368 834.16 86.976 836.272 88.192C838.384 89.3867 840.176 91.0507 841.648 93.184C843.12 95.296 844.24 97.76 845.008 100.576C845.797 103.392 846.192 106.4 846.192 109.6C846.192 112.8 845.797 115.808 845.008 118.624C844.24 121.419 843.12 123.883 841.648 126.016C840.176 128.149 838.384 129.824 836.272 131.04C834.16 132.235 831.771 132.832 829.104 132.832ZM829.104 128.352C831.92 128.352 834.277 127.488 836.176 125.76C838.096 124.032 839.536 121.749 840.496 118.912C841.456 116.053 841.936 112.949 841.936 109.6C841.936 106.059 841.435 102.88 840.432 100.064C839.451 97.2267 838 94.9867 836.08 93.344C834.181 91.68 831.856 90.848 829.104 90.848C826.928 90.848 825.029 91.3493 823.408 92.352C821.787 93.3547 820.443 94.7307 819.376 96.48C818.309 98.2293 817.509 100.235 816.976 102.496C816.443 104.736 816.176 107.104 816.176 109.6C816.176 112.971 816.667 116.085 817.648 118.944C818.629 121.781 820.08 124.064 822 125.792C823.92 127.499 826.288 128.352 829.104 128.352ZM855.517 132L878.749 91.68H852.285V87.2H883.933V91.68L860.637 132H855.517Z" fill="#C5AFFF" fill-opacity="0.3"/>
<path d="M830.308 29.312C829.412 29.312 828.544 29.172 827.704 28.892C826.872 28.612 826.144 28.212 825.52 27.692C824.896 27.172 824.456 26.552 824.2 25.832L825.772 25.244C825.948 25.74 826.268 26.168 826.732 26.528C827.204 26.88 827.752 27.152 828.376 27.344C829.008 27.536 829.652 27.632 830.308 27.632C831.076 27.632 831.792 27.504 832.456 27.248C833.12 26.992 833.656 26.636 834.064 26.18C834.472 25.716 834.676 25.172 834.676 24.548C834.676 23.916 834.464 23.396 834.04 22.988C833.616 22.58 833.068 22.26 832.396 22.028C831.732 21.788 831.036 21.604 830.308 21.476C829.164 21.276 828.136 21.004 827.224 20.66C826.32 20.316 825.604 19.832 825.076 19.208C824.548 18.576 824.284 17.744 824.284 16.712C824.284 15.744 824.564 14.904 825.124 14.192C825.684 13.48 826.42 12.928 827.332 12.536C828.252 12.144 829.244 11.948 830.308 11.948C831.18 11.948 832.032 12.084 832.864 12.356C833.696 12.628 834.428 13.024 835.06 13.544C835.7 14.064 836.16 14.7 836.44 15.452L834.844 16.028C834.668 15.524 834.344 15.096 833.872 14.744C833.408 14.384 832.864 14.112 832.24 13.928C831.616 13.736 830.972 13.64 830.308 13.64C829.548 13.632 828.836 13.76 828.172 14.024C827.516 14.28 826.984 14.64 826.576 15.104C826.168 15.56 825.964 16.096 825.964 16.712C825.964 17.432 826.152 17.988 826.528 18.38C826.912 18.764 827.432 19.052 828.088 19.244C828.744 19.436 829.484 19.608 830.308 19.76C831.38 19.944 832.376 20.232 833.296 20.624C834.216 21.008 834.956 21.524 835.516 22.172C836.076 22.812 836.356 23.604 836.356 24.548C836.356 25.508 836.076 26.348 835.516 27.068C834.956 27.78 834.216 28.332 833.296 28.724C832.384 29.116 831.388 29.312 830.308 29.312ZM845.604 29.312C844.26 29.312 843.1 28.984 842.124 28.328C841.148 27.672 840.396 26.792 839.868 25.688C839.348 24.576 839.088 23.344 839.088 21.992V12.2H840.768V21.992C840.768 23.016 840.956 23.956 841.332 24.812C841.708 25.668 842.256 26.352 842.976 26.864C843.696 27.376 844.572 27.632 845.604 27.632C846.66 27.632 847.544 27.376 848.256 26.864C848.976 26.344 849.52 25.656 849.888 24.8C850.256 23.944 850.44 23.008 850.44 21.992V12.2H852.12V21.992C852.12 23.008 851.968 23.96 851.664 24.848C851.368 25.728 850.936 26.504 850.368 27.176C849.808 27.848 849.124 28.372 848.316 28.748C847.516 29.124 846.612 29.312 845.604 29.312ZM854.885 29V12.2H856.709L865.577 25.964V12.2H867.257V29H865.445L856.565 15.236V29H854.885Z" fill="#C5AFFF" fill-opacity="0.3"/>
<path d="M435.148 12.2V13.88H429.388V29H427.708V13.88H421.96V12.2H435.148ZM448.057 12.2H449.737V29H448.057V20.84H439.237V29H437.557V12.2H439.237V19.16H448.057V12.2ZM459.144 29.312C457.8 29.312 456.64 28.984 455.664 28.328C454.688 27.672 453.936 26.792 453.408 25.688C452.888 24.576 452.628 23.344 452.628 21.992V12.2H454.308V21.992C454.308 23.016 454.496 23.956 454.872 24.812C455.248 25.668 455.796 26.352 456.516 26.864C457.236 27.376 458.112 27.632 459.144 27.632C460.2 27.632 461.084 27.376 461.796 26.864C462.516 26.344 463.06 25.656 463.428 24.8C463.796 23.944 463.98 23.008 463.98 21.992V12.2H465.66V21.992C465.66 23.008 465.508 23.96 465.204 24.848C464.908 25.728 464.476 26.504 463.908 27.176C463.348 27.848 462.664 28.372 461.856 28.748C461.056 29.124 460.152 29.312 459.144 29.312Z" fill="#C5AFFF"/>
<path d="M425.104 132.832C422.416 132.832 420.016 132.235 417.904 131.04C415.792 129.824 413.989 128.149 412.496 126.016C411.003 123.883 409.861 121.419 409.072 118.624C408.304 115.808 407.92 112.8 407.92 109.6C407.92 106.4 408.304 103.392 409.072 100.576C409.861 97.76 411.003 95.296 412.496 93.184C413.989 91.0507 415.792 89.3867 417.904 88.192C420.016 86.976 422.416 86.368 425.104 86.368C427.771 86.368 430.16 86.976 432.272 88.192C434.384 89.3867 436.176 91.0507 437.648 93.184C439.12 95.296 440.24 97.76 441.008 100.576C441.797 103.392 442.192 106.4 442.192 109.6C442.192 112.8 441.797 115.808 441.008 118.624C440.24 121.419 439.12 123.883 437.648 126.016C436.176 128.149 434.384 129.824 432.272 131.04C430.16 132.235 427.771 132.832 425.104 132.832ZM425.104 128.352C427.92 128.352 430.277 127.488 432.176 125.76C434.096 124.032 435.536 121.749 436.496 118.912C437.456 116.053 437.936 112.949 437.936 109.6C437.936 106.059 437.435 102.88 436.432 100.064C435.451 97.2267 434 94.9867 432.08 93.344C430.181 91.68 427.856 90.848 425.104 90.848C422.928 90.848 421.029 91.3493 419.408 92.352C417.787 93.3547 416.443 94.7307 415.376 96.48C414.309 98.2293 413.509 100.235 412.976 102.496C412.443 104.736 412.176 107.104 412.176 109.6C412.176 112.971 412.667 116.085 413.648 118.944C414.629 121.781 416.08 124.064 418 125.792C419.92 127.499 422.288 128.352 425.104 128.352ZM466.013 132V119.424H446.685V114.88L464.861 87.2H470.493V114.944H475.197V119.424H470.493V132H466.013ZM451.997 114.88L466.013 114.944L465.917 93.6L451.997 114.88Z" fill="black"/>
</svg>
