<svg width="59" height="59" viewBox="0 0 59 59" fill="none" xmlns="http://www.w3.org/2000/svg">
<path d="M57.639 23.9991L31.4857 1.12416C30.6355 0.380509 29.5159 -0.0219428 28.3608 0.000923675C27.2058 0.0237902 26.1047 0.470205 25.2878 1.24686L1.23439 24.1147L0 25.2881V59H23.1786V37.9657H35.8214V59H59V25.1896L57.639 23.9991ZM28.4514 4.00661C28.4886 4.00661 28.4657 4.01425 28.4497 4.02915C28.4333 4.01425 28.4143 4.00661 28.4514 4.00661ZM54.7857 54.9935H40.0357V37.9657C40.0357 36.9031 39.5917 35.884 38.8014 35.1326C38.011 34.3812 36.9391 33.9591 35.8214 33.9591H23.1786C22.0609 33.9591 20.989 34.3812 20.1986 35.1326C19.4083 35.884 18.9643 36.9031 18.9643 37.9657V54.9935H4.21429V26.9477L28.4514 4.07986C28.4531 4.07835 28.4533 4.07698 28.4546 4.07547L54.7857 26.9477V54.9935Z" fill="#C5AFFF"/>
</svg>
