<svg width="82" height="82" viewBox="0 0 82 82" fill="none" xmlns="http://www.w3.org/2000/svg">
<path d="M37.583 20.5L75.1663 20.5L75.1663 31.3308C73.1658 32.0367 71.4334 33.3458 70.208 35.0775C68.9827 36.8093 68.3246 38.8785 68.3246 41C68.3246 43.1214 68.9827 45.1907 70.208 46.9224C71.4334 48.6542 73.1658 49.9633 75.1663 50.6692L75.1663 61.5L37.583 61.5L37.583 47.8333C37.583 46.9272 37.223 46.0581 36.5823 45.4174C35.9415 44.7766 35.0725 44.4167 34.1663 44.4167C33.2602 44.4167 32.3911 44.7766 31.7504 45.4174C31.1096 46.0581 30.7497 46.9272 30.7497 47.8333L30.7497 61.5L6.83301 61.5L6.83301 50.6692C8.83358 49.9633 10.5659 48.6542 11.7913 46.9225C13.0167 45.1907 13.6747 43.1215 13.6747 41C13.6747 38.8785 13.0167 36.8093 11.7913 35.0775C10.5659 33.3458 8.83358 32.0367 6.83301 31.3308L6.83301 20.5L30.7497 20.5L30.7497 34.1667C30.7497 35.0728 31.1096 35.9419 31.7504 36.5826C32.3911 37.2234 33.2602 37.5833 34.1663 37.5833C35.0725 37.5833 35.9415 37.2234 36.5823 36.5826C37.223 35.9419 37.583 35.0728 37.583 34.1667L37.583 20.5Z" fill="#C5AFFF"/>
</svg>
