<svg width="71" height="65" viewBox="0 0 71 65" fill="none" xmlns="http://www.w3.org/2000/svg">
<path d="M35.2171 64.474L26.5896 26.731H43.7031L35.2171 64.474Z" fill="#0E0E0E"/>
<path d="M20.6493 26.5898H3.25293L33.237 64.4942L20.6493 26.5898Z" fill="#0E0E0E"/>
<path d="M50.2092 26.5898H67.6056L37.6215 64.4942L50.2092 26.5898Z" fill="#0E0E0E"/>
<path d="M10.0666 7.18567C10.688 6.12264 12.2243 6.12264 12.8457 7.18567L19.9618 19.3589C20.589 20.4319 19.8151 21.7807 18.5722 21.7807H4.34013C3.09723 21.7807 2.32332 20.4319 2.95057 19.3589L10.0666 7.18567Z" fill="#0E0E0E"/>
<path d="M58.1543 7.18567C58.7757 6.12264 60.312 6.12264 60.9334 7.18567L68.0494 19.3589C68.6767 20.4319 67.9028 21.7807 66.6599 21.7807H52.4278C51.1849 21.7807 50.411 20.4319 51.0382 19.3589L58.1543 7.18567Z" fill="#0E0E0E"/>
<path d="M28.9736 20.4983C28.3541 21.5713 26.8053 21.5713 26.1858 20.4983L19.0523 8.14268C18.4328 7.06964 19.2072 5.72833 20.4462 5.72833L34.7132 5.72834C35.9522 5.72834 36.7267 7.06964 36.1071 8.14268L28.9736 20.4983Z" fill="#0E0E0E"/>
<path d="M44.8142 20.4983C44.1947 21.5713 42.6459 21.5713 42.0264 20.4983L34.8929 8.14268C34.2734 7.06964 35.0478 5.72833 36.2868 5.72833L50.5538 5.72834C51.7928 5.72834 52.5672 7.06964 51.9477 8.14268L44.8142 20.4983Z" fill="#0E0E0E"/>
<path d="M34.1104 7.18567C34.7319 6.12264 36.2681 6.12264 36.8896 7.18567L44.0056 19.3589C44.6329 20.4319 43.8589 21.7807 42.616 21.7807L28.384 21.7807C27.1411 21.7807 26.3671 20.4319 26.9944 19.3589L34.1104 7.18567Z" fill="#0E0E0E"/>
</svg>
