<svg width="756" height="400" viewBox="0 0 756 400" fill="none" xmlns="http://www.w3.org/2000/svg">
<mask id="mask0_291_6" style="mask-type:alpha" maskUnits="userSpaceOnUse" x="0" y="0" width="756" height="400">
<rect width="756" height="400" rx="23" fill="white" fill-opacity="0.62"/>
</mask>
<g mask="url(#mask0_291_6)">
<path d="M196.369 379.444C193.324 378.304 192.473 377.189 193.196 375.286C193.531 374.405 194.175 373.684 194.626 373.684C195.078 373.684 197.054 374.723 199.019 375.992C200.983 377.262 203.385 378.589 204.357 378.942L206.123 379.583L203.95 379.631C202.755 379.656 201.002 379.79 200.054 379.928C199.106 380.065 197.448 379.848 196.369 379.444ZM189.458 373.595C188.885 373.274 187.929 373.166 187.334 373.355C186.585 373.592 186.007 373.238 185.452 372.202C185.012 371.38 184.223 370.559 183.699 370.379C182.496 369.965 179.975 365.881 178.572 362.073C177.863 360.15 176.91 358.82 175.779 358.177C173.772 357.035 173.628 356.517 175.182 356.024C176.959 355.46 177.29 352.326 175.794 350.224C175.08 349.221 174.704 348.044 174.919 347.483C175.173 346.821 174.472 345.66 172.775 343.931C170.633 341.749 170.237 340.955 170.141 338.656C170.079 337.167 169.717 335.574 169.336 335.114C168.856 334.536 168.758 332.461 169.017 328.357C169.298 323.91 169.134 321.165 168.361 317.339C167.211 311.658 166.624 301.072 166.923 291.414C166.987 289.354 166.72 286.525 166.33 285.128C165.38 281.726 161.009 277.432 155.607 274.593C151.743 272.563 151.199 272.042 149.689 268.924C148.774 267.035 147.026 264.212 145.804 262.651C144.582 261.09 143.254 258.797 142.852 257.556C141.577 253.617 139.329 249.659 137.796 248.655C136.981 248.121 136.051 246.731 135.729 245.567C135.209 243.684 135.346 243.158 136.974 240.793C138.739 238.227 138.76 238.123 137.567 237.811C134.636 237.044 135.869 233.127 141.129 226.489C144.626 222.077 145.65 218.715 144.682 214.832C144.312 213.353 143.982 211.805 143.947 211.393C143.912 210.98 143.649 210.643 143.363 210.643C143.077 210.643 143.132 210.103 143.486 209.442C144.03 208.424 143.893 208.133 142.583 207.536C140.675 206.667 137.793 207.526 137.782 208.969C137.769 210.698 137.008 210.826 134.5 209.518C133.157 208.818 131.762 208.246 131.4 208.246C131.038 208.246 129.63 207.288 128.272 206.118C126.913 204.947 125.464 203.723 125.052 203.397C124.64 203.07 124.303 202.182 124.303 201.422C124.303 200.662 123.774 199.561 123.127 198.975C122.48 198.39 121.641 196.974 121.264 195.83C120.767 194.326 120.396 193.931 119.922 194.404C118.935 195.391 117.473 195.204 113.924 193.634C112.069 192.814 110.136 191.413 109.364 190.329C108.627 189.294 107.219 188.031 106.235 187.522C104.611 186.682 104.205 186.689 101.84 187.592L99.2341 188.587L91.2385 184.713C86.3203 182.329 82.5033 180.056 81.321 178.806C79.4879 176.867 79.4286 176.657 80.0386 174.254C80.5973 172.052 80.5024 171.371 79.2871 168.861C78.5221 167.28 76.8505 164.853 75.5726 163.466C74.2946 162.08 73.3942 160.71 73.5716 160.423C73.749 160.136 72.8488 158.201 71.5711 156.124C70.1197 153.764 69.0953 151.235 68.8408 149.385C68.5146 147.013 68.1345 146.288 66.9313 145.739C65.6558 145.158 65.2991 145.232 64.5688 146.23C63.5402 147.635 63.8326 149.119 66.1069 154.034C67.0311 156.031 67.9863 158.992 68.2294 160.613C68.4726 162.234 69.1908 164.579 69.8254 165.823C71.3287 168.77 70.3581 168.718 67.9875 165.725C66.5894 163.959 66.2118 162.991 66.4896 161.884C66.7863 160.702 66.4942 160.133 65.041 159.058C62.8371 157.429 62.3706 156.378 63.1802 154.865C63.6523 153.983 63.4358 153.015 62.2369 150.649C61.0194 148.247 60.7647 147.083 61.0661 145.298C61.5589 142.382 60.2503 139.742 57.8108 138.731C56.4023 138.148 55.9168 137.495 55.6298 135.8C55.4268 134.6 55.0379 132.744 54.7656 131.675C54.4825 130.563 54.503 129.588 54.8138 129.396C55.1125 129.212 54.9171 128.389 54.3795 127.569C53.5876 126.36 53.5334 125.788 54.094 124.558C54.4747 123.722 54.6183 122.768 54.4133 122.436C54.2082 122.104 54.7192 121.113 55.5487 120.233C56.3783 119.353 57.4827 117.598 58.003 116.334C58.5232 115.069 60.1266 112.724 61.5659 111.123C63.0053 109.522 64.83 106.718 65.6209 104.891C66.7187 102.356 67.3621 101.568 68.3409 101.56C69.0461 101.555 69.5855 101.887 69.5397 102.299C69.3489 104.016 70.7068 103.487 72.232 101.25C73.131 99.9315 73.6161 98.7626 73.3099 98.6527C73.0038 98.5428 72.7533 98.0468 72.7533 97.5503C72.7533 97.0539 71.5124 95.4416 69.9957 93.9676C67.4802 91.5228 67.3186 91.1987 68.1551 90.2744C68.8328 89.5256 68.9125 88.9761 68.4605 88.1685C67.6663 86.7493 68.9196 83.5711 70.2785 83.5583C70.8397 83.5529 70.9999 83.3619 70.6553 83.1088C69.8822 82.5407 69.5319 81.2508 69.6405 79.3716C69.814 76.3702 69.1572 75.1147 66.9257 74.1823C65.7221 73.6794 63.8855 72.6183 62.8444 71.8242C61.8033 71.0301 60.4825 70.3804 59.9092 70.3804C59.3358 70.3804 56.7298 69.8348 54.118 69.1679C49.919 68.0958 49.1789 68.0534 47.7243 68.8021C44.7099 70.3535 41.5162 70.9858 40.2142 70.289C39.2376 69.7664 38.1719 70.0891 34.4555 72.0331C31.9473 73.3451 28.9511 74.6221 27.7972 74.871C26.6433 75.1198 24.4351 75.9604 22.89 76.7389C18.5074 78.9473 12.2293 81.1734 10.4927 81.1348C9.37193 81.1099 10.1297 80.6183 13.1116 79.4358C18.1793 77.4261 23.3867 74.809 23.8684 74.0297C24.4616 73.0698 23.1739 72.7254 21.627 73.4302C20.488 73.9491 19.7862 73.9006 18.4719 73.212L16.7816 72.3263L18.6203 71.3755C20.6988 70.3007 21.3526 69.0847 20.8751 67.1819C20.4126 65.3392 22.9627 63.9852 28.4562 63.1567C31.408 62.7115 33.6519 61.9705 35.1627 60.9421C37.8268 59.1285 37.3691 57.7578 34.4967 58.9476C33.1369 59.5109 32.1465 59.517 30.1327 58.9748C27.6855 58.3158 27.5983 58.2217 28.6929 57.4213C30.5245 56.082 34.3127 55.2765 36.8016 55.697C38.3765 55.963 39.6666 55.7768 40.9906 55.0921L42.9037 54.1027L41.6443 52.7621C40.9517 52.0248 40.3849 51.263 40.3849 51.0693C40.3849 50.5131 43.9934 49.4009 45.7977 49.4009C46.6983 49.4009 49.1672 48.7489 51.2841 47.9521C53.401 47.1553 58.285 46.0675 62.1375 45.5348C68.3858 44.6707 69.7089 44.6601 74.3942 45.437C77.283 45.916 81.265 46.4873 83.243 46.7065C85.2211 46.9258 88.7222 47.6217 91.0234 48.253C96.3678 49.7193 99.8487 49.7014 105.819 48.177C108.456 47.5038 111.12 47.1142 111.741 47.3111C112.361 47.508 113.416 47.3762 114.085 47.0182C115.006 46.525 115.721 46.5847 117.036 47.2646C118.224 47.8789 119.69 48.0543 121.687 47.8207C123.793 47.5743 125.637 47.8295 128.33 48.74C130.38 49.4331 132.657 50.0003 133.39 50.0003C134.688 50.0003 134.692 50.0223 133.559 50.8566C132.447 51.6747 132.444 51.7318 133.487 52.1363C134.088 52.3691 136.174 52.393 138.123 52.1893C141.642 51.8215 141.672 51.8319 142.654 53.7294L143.642 55.6399L144.924 54.0316C145.661 53.1074 147.412 52.0605 149.041 51.5702C151.503 50.8292 152.25 50.8317 154.723 51.589C156.469 52.1235 158.558 52.3183 160.123 52.0923C162.115 51.8045 163.04 51.9838 164.34 52.9094C165.981 54.078 166.027 54.0786 167.482 52.9505C168.295 52.321 169.966 51.5253 171.197 51.1824C174.143 50.3616 175.142 48.6124 173.373 47.373C172.122 46.4966 172.177 46.4298 175.466 44.8167C177.918 43.6137 179.023 43.3405 179.501 43.8186C179.979 44.2967 179.974 44.8226 179.483 45.74C178.647 47.3038 179.688 49.6674 180.993 49.1665C181.463 48.9864 182.241 48.9905 182.723 49.1755C183.48 49.4661 183.468 49.7125 182.634 50.9857C180.329 54.5031 185.496 53.5065 188.994 49.7589C190.416 48.2353 192.62 47.7734 194.685 48.5659C196.019 49.0777 195.894 49.4967 193.685 51.9186C191.053 54.8047 189.706 55.395 185.752 55.395C183.842 55.395 181.586 55.809 180.535 56.3525C179.08 57.1049 178.371 57.1674 177.223 56.6446C175.084 55.6698 174.339 56.4812 175.873 58.1147L177.183 59.5091L174.57 60.2509C173.132 60.6589 170.742 61.0321 169.259 61.0803C167.108 61.1502 166.561 61.3838 166.557 62.2342C166.554 62.962 165.508 63.7278 163.261 64.6464C155.979 67.6229 149.802 72.9896 152.038 74.3966C152.457 74.6603 153.123 75.6103 153.517 76.5078C153.97 77.5414 154.845 78.2622 155.902 78.4738C156.819 78.6575 159.189 79.6048 161.167 80.5789C163.145 81.553 165.573 82.5263 166.562 82.7419C169.284 83.3353 169.308 83.3978 168.04 86.6151C166.955 89.3677 166.933 89.7605 167.774 91.3864C168.278 92.3608 169.021 93.1486 169.424 93.1369C171.388 93.08 173.23 91.2674 174.374 88.2648C175.465 85.403 175.962 84.8692 179.092 83.1971C183.712 80.7295 185.634 78.2991 185.122 75.5701C184.788 73.7925 184.961 73.3753 186.483 72.2919C187.442 71.6091 188.711 69.975 189.304 68.6605C190.629 65.7224 192.758 64.7038 196.348 65.2908C199.532 65.8113 203.297 67.8327 203.752 69.2656C203.939 69.8538 203.784 70.9102 203.407 71.6131C202.838 72.6778 202.945 73.1273 204.052 74.3053L205.381 75.7195L207.55 74.5949C208.743 73.9764 210.656 72.7699 211.8 71.9137L213.88 70.357L214.369 71.6782C214.638 72.4049 214.714 73.3738 214.538 73.8313C214.363 74.2888 214.499 75.1866 214.842 75.8265C215.227 76.5463 215.257 77.3604 214.92 77.9619C214.541 78.6401 214.795 79.6702 215.759 81.3687C217.141 83.8018 217.141 83.8038 215.928 84.6539C214.331 85.7725 215.355 86.9588 217.108 86.0207C218.849 85.089 220.842 85.2102 222.071 86.3224C223.888 87.9665 222.377 89.9334 217.555 92.2022C212.31 94.6698 209.972 95.1586 203.126 95.2192C198.071 95.2639 197.401 95.4251 192.486 97.7812C189.602 99.164 187.241 100.533 187.241 100.823C187.241 102.06 188.15 101.952 191.638 100.302C193.692 99.3301 196.341 98.5536 197.602 98.5533C199.757 98.5529 199.836 98.6195 199.163 99.8767C198.773 100.605 197.932 101.623 197.295 102.139C196.292 102.951 196.234 103.294 196.861 104.671C197.802 106.737 200.26 107.731 203.2 107.235L205.523 106.843L203.737 108.075C202.754 108.753 201.136 109.484 200.14 109.699C199.145 109.914 197.099 110.71 195.594 111.468C194.066 112.238 192.531 112.645 192.119 112.39C191.17 111.804 192.172 110.924 195.254 109.637C197.995 108.491 197.557 107.275 194.603 107.829C193.452 108.045 189.721 109.45 186.311 110.952C180.989 113.296 180.061 113.915 179.751 115.326C179.37 117.06 178.071 117.88 173.503 119.27C172.045 119.713 170.157 120.785 169.307 121.651C168.456 122.517 166.828 123.814 165.688 124.533C164.548 125.251 163.457 126.511 163.263 127.331C162.943 128.684 162.869 128.716 162.468 127.674C161.718 125.722 160.588 127.63 160.523 130.958C160.456 134.368 158.728 136.694 154.937 138.475C151.051 140.301 145.52 144.617 144.4 146.697C143.41 148.534 143.369 149.25 143.979 153.971C144.547 158.376 144.513 159.482 143.765 160.929C143.206 162.009 142.554 162.526 142.012 162.318C140.726 161.824 139.152 156.531 139.593 154.181C139.899 152.549 139.697 151.93 138.48 150.787C137.5 149.866 136.595 149.516 135.825 149.76C135.183 149.964 133.368 149.578 131.789 148.901C129.37 147.864 128.598 147.777 126.871 148.347C125.7 148.733 124.537 149.65 124.156 150.486C123.589 151.73 123.214 151.89 121.648 151.553C120.636 151.335 119.079 150.785 118.189 150.33C115.996 149.21 114.768 149.288 112.305 150.704C111.157 151.365 108.812 152.629 107.096 153.513C105.124 154.53 103.769 155.687 103.413 156.658C103.104 157.503 101.999 160.797 100.957 163.978L99.0633 169.762L100.031 173.495C101.808 180.355 104.281 182.408 109.434 181.303C113.318 180.47 115.651 178.782 116.508 176.184C117.053 174.534 117.64 173.988 119.399 173.5C122.045 172.765 123.15 172.738 124.167 173.383C125.005 173.915 124.711 174.791 120.955 182.922C118.378 188.501 118.564 189 122.979 188.363C127.001 187.783 130.677 188.229 131.107 189.348C131.274 189.784 131.002 192.728 130.502 195.89C129.607 201.547 129.613 201.674 130.902 203.758C131.622 204.924 132.972 206.271 133.902 206.752C135.387 207.519 135.853 207.518 137.721 206.737C140.69 205.497 142.302 205.628 144.364 207.278C146.013 208.597 146.246 208.634 147.542 207.785C148.311 207.281 149.36 206.032 149.873 205.01C151.031 202.704 152.981 201.084 154.619 201.066C155.303 201.059 156.496 200.378 157.271 199.554C158.843 197.88 161.612 197.335 160.259 198.966C159.123 200.334 158.474 204.736 159.206 206.103C159.815 207.242 159.864 207.236 160.973 205.866C161.763 204.891 161.922 204.265 161.49 203.834C160.461 202.804 160.771 201.949 162.687 200.532C164.676 199.062 166.214 199.213 167.931 201.047C169.189 202.391 175.908 204.209 177.834 203.726C180.766 202.99 188.69 207.808 191.667 212.137C193.085 214.198 197.614 216.273 199.605 215.773C203.701 214.745 209.317 218.849 210.631 223.83C211.022 225.314 211.612 226.696 211.941 226.901C212.816 227.446 211.506 229.599 208.642 232.323C206.813 234.063 206.376 234.813 206.89 235.327C207.405 235.842 208.251 235.391 210.283 233.518C213.238 230.795 214.224 230.518 215.704 231.998C216.604 232.899 216.577 233.082 215.342 234.396C214.607 235.179 213.581 235.836 213.062 235.857C212.514 235.879 212.735 236.142 213.588 236.482C214.759 236.95 215.37 236.818 216.585 235.836C219.75 233.279 220.494 233.156 223.305 234.727C225.133 235.748 225.865 236.525 225.773 237.347C225.516 239.633 226.055 240.139 227.64 239.101C228.9 238.276 229.764 238.236 233.978 238.813C238.46 239.427 239.048 239.672 241.198 241.822C242.795 243.419 244.591 244.469 246.847 245.125C249.876 246.005 250.205 246.274 250.754 248.314C251.551 251.272 250.618 254.555 248.094 257.673C247.015 259.005 245.694 260.961 245.157 262.019C244.62 263.076 243.478 264.645 242.619 265.504C241.165 266.957 241.084 267.321 241.446 270.773C242.154 277.517 238.856 290.098 235.674 292.789C234.638 293.665 233.752 293.871 232.109 293.616C230.759 293.407 229.759 293.542 229.496 293.969C229.261 294.349 227.952 295.151 226.587 295.752C225.222 296.352 223.19 297.624 222.071 298.58C220.135 300.234 220.07 300.417 220.722 302.391C221.473 304.667 220.967 307.362 219.357 309.661C218.837 310.404 218.411 311.668 218.411 312.471C218.411 313.273 217.786 314.764 217.021 315.784C216.257 316.804 214.782 319.139 213.744 320.973C211.191 325.485 209.656 326.267 205.954 324.94C202.741 323.789 201.028 323.651 201.028 324.545C201.028 324.882 201.668 325.449 202.451 325.806C203.234 326.162 204.454 327.614 205.162 329.032C206.216 331.143 206.328 331.877 205.778 333.083C204.927 334.951 201.671 336.52 198.645 336.52C195.965 336.52 195.3 337.176 196.226 338.906C196.797 339.973 196.413 341.691 195.308 343.008C195.218 343.115 194.28 342.755 193.222 342.208C190.698 340.902 189.804 341.734 191.08 344.201C191.599 345.205 192.586 346.204 193.273 346.422C194.454 346.797 194.466 346.88 193.506 347.941C192.947 348.559 192.657 349.497 192.861 350.028C193.08 350.598 192.591 351.831 191.665 353.046C190.158 355.021 190.137 355.157 191.103 356.631C191.655 357.474 192.516 358.321 193.017 358.513C194.822 359.206 195.121 361.572 193.745 364.27C192.366 366.973 192.154 369.683 193.221 370.97C194.192 372.139 190.927 374.416 189.458 373.595ZM145.282 113.983C146.884 110.636 149.864 108.143 152.264 108.143C153.992 108.143 154.012 108.424 152.43 110.435L151.187 112.016L152.463 113.049C153.491 113.882 154.021 113.954 155.194 113.42C155.994 113.055 156.814 112.235 157.016 111.598C157.291 110.731 157.739 110.529 158.794 110.794C159.771 111.039 160.383 110.829 160.785 110.111C162.003 107.934 158.903 105.151 156.621 106.372C154.989 107.246 152.856 105.507 153.311 103.674C153.48 102.995 153.133 101.812 152.532 101.019C151.293 99.3834 149.408 99.2112 145.282 100.356C143.799 100.768 142.107 101.087 141.523 101.064C140.939 101.042 140.618 101.276 140.809 101.586C141.001 101.896 140.939 102.155 140.672 102.163C140.406 102.17 139.516 102.692 138.696 103.322L137.204 104.468L138.879 105.105C140.189 105.603 140.961 105.532 142.415 104.78C144.125 103.896 144.441 103.896 146.307 104.786C147.43 105.322 148.965 105.597 149.742 105.402C150.514 105.208 151.311 105.317 151.513 105.644C151.72 105.979 150.876 106.409 149.585 106.627C146.077 107.22 144.254 108.68 141.71 112.939C139.585 116.496 139.463 116.925 140.31 117.865C141.141 118.787 141.371 118.802 142.511 118.005C143.211 117.515 144.458 115.705 145.282 113.983ZM156.173 117.683C158.306 116.594 158.512 116.321 157.76 115.569C157.008 114.817 156.533 114.866 154.086 115.948C151.214 117.218 150.302 118.933 152.499 118.933C153.172 118.933 154.825 118.37 156.173 117.683ZM166.801 113.153C168.05 112.279 168.096 112.107 167.215 111.615C165.919 110.889 162.066 112.139 162.066 113.285C162.066 114.466 165.046 114.383 166.801 113.153ZM211.817 372.006C211.817 371.742 212.141 371.202 212.537 370.807C212.932 370.411 213.029 370.087 212.753 370.087C212.476 370.087 211.926 370.53 211.53 371.07C210.963 371.847 210.571 371.913 209.666 371.388C209.019 371.013 208.862 370.715 209.305 370.705C209.737 370.695 209.923 370.417 209.719 370.087C209.328 369.454 210.357 369.282 213.316 369.484C215.957 369.664 216.223 370.05 214.59 371.334C213.069 372.53 211.817 372.833 211.817 372.006ZM712.407 356.962C710.692 355.875 714.263 353.476 723.118 349.767C725.59 348.731 729.358 346.564 731.49 344.952C735.116 342.211 735.417 342.092 736.135 343.118C737.226 344.676 736.583 345.803 733.919 347.004C732.646 347.579 731.045 348.691 730.362 349.477C729.679 350.263 728.579 350.906 727.919 350.906C727.258 350.906 725.705 351.815 724.468 352.925C720.233 356.726 714.868 358.521 712.407 356.962ZM670.457 349.175C669.834 348.78 669.799 348.374 670.307 347.425C670.671 346.746 670.969 345.345 670.969 344.312C670.969 342.623 671.105 342.481 672.317 342.908C673.059 343.169 674.61 343.418 675.764 343.461C676.918 343.504 678.07 343.578 678.325 343.626C679.319 343.813 676.663 346.835 674.278 348.233C671.436 349.899 671.553 349.87 670.457 349.175ZM739.722 343.933C739.513 343.725 740.007 343.031 740.819 342.393C742.042 341.43 742.185 341.024 741.65 340.025C740.876 338.579 742.026 337.027 744.688 335.924C746.75 335.07 747.269 333.337 746.716 329.153C746.336 326.275 746.382 326.096 747.31 326.863C748.038 327.465 748.217 328.224 747.957 329.608C747.673 331.124 747.928 331.912 749.194 333.416C750.56 335.04 750.966 335.216 752.029 334.647C753.089 334.08 753.213 334.132 752.879 335.001C752.665 335.561 752.489 336.125 752.489 336.254C752.489 336.384 751.612 336.938 750.541 337.487C749.469 338.036 747.379 339.487 745.895 340.711C743.483 342.703 741 344.313 740.34 344.313C740.209 344.313 739.93 344.142 739.722 343.933ZM676.336 336.192C675.074 334.848 674.841 334.796 673.628 335.591C672.082 336.604 669.179 336.012 666.851 334.21C665.61 333.249 665.523 332.939 666.164 331.743C666.71 330.722 666.728 330.006 666.235 328.924C665.871 328.126 665.574 326.946 665.574 326.302C665.574 324.85 664.631 324.78 663.85 326.175C663.529 326.75 663.094 327.048 662.885 326.838C662.675 326.628 663.369 325.47 664.427 324.264C667.032 321.298 666.015 320.493 662.575 322.797C661.092 323.79 659.783 324.874 659.666 325.207C659.549 325.54 658.836 324.513 658.083 322.924C657.266 321.202 655.855 319.471 654.587 318.636C652.682 317.381 652.037 317.278 648.378 317.642C643.012 318.176 637.835 319.499 634.447 321.202C632.907 321.977 629.901 322.769 627.583 323.012C625.315 323.25 621.709 324.104 619.568 324.91C616.295 326.142 615.363 326.272 613.704 325.724C611.48 324.99 610.556 323.477 611.995 322.924C612.516 322.724 613.462 321.349 614.096 319.868C615.113 317.496 615.169 316.758 614.566 313.695C614.068 311.16 614.054 308.76 614.515 304.858C614.864 301.912 614.997 298.921 614.812 298.212C614.626 297.503 614.916 295.767 615.455 294.355C616.406 291.865 616.637 291.702 623.067 288.978C626.715 287.433 630.448 286.169 631.364 286.169C633.841 286.169 636.909 283.812 638.6 280.609C639.646 278.629 640.371 277.876 640.998 278.118C642.749 278.795 643.094 278.662 642.96 277.364C642.873 276.529 643.231 275.922 643.945 275.696C644.562 275.5 645.703 274.408 646.479 273.27C647.274 272.105 648.909 270.792 650.221 270.266C652.409 269.387 652.627 269.4 653.817 270.482C656.013 272.478 657.57 273.061 658.313 272.165C658.674 271.73 658.799 271.202 658.589 270.993C657.903 270.306 661.042 266.367 662.577 265.989C663.401 265.786 665.093 265.109 666.337 264.486C668.277 263.514 668.96 263.45 671.133 264.033C675.819 265.291 675.974 265.497 674.231 268.131C671.99 271.519 672.584 272.843 678.082 276.713C680.621 278.5 683.017 279.855 683.408 279.725C683.798 279.595 685.033 278.227 686.151 276.685C687.676 274.584 688.267 273.056 688.511 270.585C688.858 267.075 690.537 262.193 691.397 262.193C691.682 262.193 692.334 263.637 692.847 265.401C693.36 267.165 694.435 269.224 695.236 269.977C697.107 271.735 698.194 276.651 697.354 279.555C696.797 281.48 696.905 281.789 698.813 283.751C699.946 284.917 701.738 287.758 702.795 290.066C703.852 292.373 705.758 295.639 707.03 297.322L709.343 300.382L708.686 305.11C708.209 308.54 707.47 310.827 705.995 313.439C703.736 317.44 700.358 321.258 698.578 321.823C697.937 322.026 696.454 323.528 695.281 325.161C694.108 326.793 692.885 328.128 692.562 328.128C692.24 328.128 690.869 329.529 689.516 331.241C687.258 334.097 686.843 334.358 684.491 334.402C682.686 334.436 681.304 334.926 679.822 336.056L677.717 337.662L676.336 336.192ZM384.05 323.589C382.781 322.319 382.569 321.67 382.853 319.922C383.12 318.277 382.865 317.309 381.725 315.631C380.915 314.439 380.253 313.171 380.253 312.812C380.253 312.454 379.193 310.74 377.897 309.004C375.895 306.32 375.483 305.248 375.153 301.852C374.571 295.861 372.658 289.376 370.086 284.676C368.822 282.366 367.608 279.365 367.388 278.009C366.92 275.123 368.091 270.828 370.767 265.624L372.547 262.163L371.547 259.152C370.987 257.468 370.714 255.475 370.926 254.628C371.175 253.638 370.908 252.458 370.152 251.21C369.518 250.163 368.576 247.822 368.059 246.009C367.368 243.587 366.405 242.012 364.43 240.074C360.631 236.347 360.137 234.88 361.316 230.824C363.716 222.568 361.123 217.752 354.789 218.702C352.323 219.072 352.228 219.026 351.88 217.284C351.612 215.947 350.888 215.161 349.068 214.232C346.704 213.026 345.692 213.022 342.789 214.204C342.13 214.473 339.433 215.403 336.795 216.272C332.829 217.579 331.639 217.747 329.912 217.247C328.277 216.772 326.9 216.895 323.553 217.813C320.095 218.762 318.842 218.864 316.973 218.348C313.074 217.271 306.376 211.234 305.423 207.938C304.686 205.387 300.101 199.442 298.54 199.014C297.549 198.741 297.427 198.531 298.034 198.139C298.645 197.745 298.538 197.545 297.584 197.296C296.069 196.9 295.919 195.662 297.384 195.649C298.28 195.641 298.302 195.555 297.534 195.059C296.967 194.693 296.904 194.474 297.363 194.468C297.84 194.462 297.658 193.723 296.841 192.339C295.692 190.39 295.668 190.133 296.546 189.162C299.228 186.199 299.815 179.818 297.777 175.799C296.804 173.88 297.429 171.229 299.506 168.473C300.288 167.435 301.815 164.911 302.899 162.862C304.795 159.28 309.022 154.298 310.166 154.298C311.432 154.298 315.516 149.907 315.516 148.546C315.516 145.474 317.353 142.41 320.348 140.488C321.958 139.455 323.843 137.69 324.539 136.564C325.962 134.262 326.163 134.187 327.82 135.342C328.471 135.795 330.087 136.348 331.411 136.57C333.432 136.909 334.397 136.665 337.405 135.056C342.581 132.288 345.779 131.597 351.702 131.966C355.607 132.21 357.366 132.054 359.259 131.297C362.047 130.181 364.457 130.841 363.805 132.542C363.609 133.053 363.729 133.808 364.071 134.221C364.502 134.74 364.499 135.484 364.06 136.638C363.509 138.086 363.631 138.518 364.996 139.942C365.86 140.843 367.405 141.749 368.432 141.954C373.249 142.917 374.619 143.541 375.613 145.225C376.342 146.459 377.298 147.092 378.877 147.389C380.105 147.619 381.889 148.21 382.841 148.702C384.457 149.538 384.666 149.508 386.014 148.242C386.92 147.39 387.331 146.489 387.118 145.819C386.932 145.233 387.074 144.203 387.434 143.532C388.361 141.799 390.994 141.969 395.105 144.027C399.584 146.269 408.079 147.869 411.09 147.038C412.538 146.638 413.931 146.633 415.199 147.022C419.341 148.295 421.462 147.299 422.027 143.815C422.215 142.657 422.536 141.711 422.74 141.711C423.127 141.711 423.33 139.971 423.386 136.166C423.404 134.93 423.696 133.918 424.035 133.918C424.439 133.918 424.419 133.484 423.978 132.659C423.241 131.282 421.746 131.313 418.168 132.781C416.471 133.478 415.999 133.448 414.479 132.55C412.508 131.386 410.485 131.211 409.902 132.155C409.468 132.857 406.403 132.365 404.741 131.327C403.547 130.581 402.431 128.361 402.431 126.731C402.431 126.106 401.824 125.167 401.082 124.644C399.934 123.836 399.867 123.607 400.633 123.106C401.127 122.782 402.144 122.662 402.893 122.838C403.848 123.062 404.726 122.686 405.835 121.578C406.878 120.534 408.147 119.959 409.569 119.883C410.753 119.82 412.468 119.277 413.381 118.676C415.362 117.37 419.859 117.733 423.348 119.479C428.053 121.834 432.231 121.696 433.913 119.129C434.788 117.794 434.793 117.513 433.962 116.246C433.456 115.474 431.026 113.695 428.562 112.293L424.081 109.744L424.921 108.121C425.383 107.228 425.609 106.346 425.424 106.161C425.24 105.977 425.31 105.47 425.581 105.036C425.852 104.602 426.127 103.899 426.191 103.473C426.329 102.565 425.362 102.816 420.596 104.924C417.828 106.148 417.417 106.523 418.031 107.263C418.433 107.747 419.336 108.155 420.037 108.17C421.021 108.19 420.788 108.473 419.018 109.407C416.869 110.541 416.629 110.556 415.232 109.64C414.037 108.857 413.88 108.493 414.447 107.811C415.009 107.133 414.925 106.873 414.037 106.539C413.423 106.309 412.631 105.734 412.278 105.263C410.561 102.975 405.114 108.995 403.53 114.931C402.786 117.718 402.811 117.863 404.211 118.919L405.663 120.015L402.998 120.564C401.532 120.867 399.557 120.902 398.608 120.643C396.857 120.164 394.639 120.885 394.639 121.932C394.639 122.24 394.231 122.335 393.732 122.144C393.233 121.952 392.441 122.114 391.972 122.504C391.245 123.107 391.327 123.602 392.533 125.869C393.839 128.325 393.879 128.661 393.064 130.293C392.044 132.339 391.095 132.187 389.653 129.746C388.648 128.045 388.655 128.006 389.985 127.817C391.663 127.579 391.771 126.511 390.143 126.25C386.429 125.657 384.449 123.7 384.449 120.624C384.449 118.224 382.224 115.578 379.526 114.77C378.124 114.35 376.599 113.468 376.139 112.81C375.678 112.152 374.329 111.207 373.141 110.711C371.953 110.215 370.624 109.298 370.187 108.674C369.56 107.779 369.147 107.671 368.229 108.162C367.589 108.505 367.066 109.171 367.066 109.642C367.066 111.199 374.706 118.239 378.44 120.125C382.4 122.123 383.018 122.837 380.267 122.233C377.815 121.694 377.146 122.233 377.985 124.075C378.575 125.368 378.478 125.762 377.293 126.901L375.916 128.224L376.229 126.438C376.726 123.604 372.989 119.532 369.89 119.532C368.754 119.532 364.39 115.299 363.246 113.088C362.025 110.725 360.665 110.269 358.739 111.574C355.838 113.541 353.663 114.207 351.387 113.822C348.364 113.311 346.462 114.366 346.944 116.285C347.195 117.287 347.055 117.734 346.49 117.734C346.041 117.734 344.889 118.408 343.931 119.232C342.974 120.056 341.984 120.73 341.732 120.73C340.99 120.731 338.898 124.519 338.895 125.864C338.893 127.151 336.549 129.686 334.287 130.848C333.567 131.218 331.891 131.521 330.562 131.521C328.734 131.521 327.985 131.822 327.483 132.759C326.826 133.986 326.806 133.983 325.27 132.447C323.829 131.006 322.999 130.645 320.091 130.195C318.563 129.959 318.305 126.5 319.448 121.571C319.936 119.465 320.176 117.104 319.98 116.325C319.413 114.062 321.191 112.728 324.165 113.185C331.033 114.24 335.051 114.298 335.992 113.356C337.286 112.062 337.87 107.795 337.08 105.402C336.565 103.842 335.857 103.203 333.743 102.396C330.635 101.209 330.569 100.061 333.608 100.03C334.766 100.019 336.437 99.5354 337.32 98.9564C338.204 98.3773 339.181 98.0607 339.492 98.2527C340.339 98.7764 343.548 96.927 344.613 95.3007C345.128 94.5147 346.142 93.7206 346.867 93.5359C347.591 93.3512 349.533 91.9438 351.181 90.4084C353.518 88.2315 354.744 87.549 356.748 87.3098C359.231 87.0135 361.727 84.9719 360.555 84.1966C359.827 83.7147 359.218 80.8122 359.624 79.7549C359.816 79.254 360.665 78.3911 361.509 77.8375L363.046 76.8309L362.651 79.2973C362.309 81.438 362.396 81.7405 363.313 81.5873C363.893 81.4903 364.979 81.0753 365.726 80.6651C366.863 80.0405 367.142 80.0709 367.441 80.8519C367.955 82.1905 366.527 83.7646 365.541 82.9464C364.996 82.4944 364.651 82.5108 364.347 83.003C364.033 83.5107 363.787 83.4831 363.427 82.8996C363.156 82.4618 362.797 82.2413 362.629 82.4094C362.461 82.5776 362.94 83.4887 363.694 84.4342C364.965 86.0278 365.207 86.1035 367.018 85.4721C368.569 84.9314 369.314 84.9683 370.634 85.6512C372.125 86.4221 372.629 86.3854 375.494 85.2966C378.005 84.3427 378.994 84.2204 380.105 84.7267C381.127 85.1924 381.885 85.1828 382.834 84.6921C385.531 83.2989 386.277 82.2484 385.943 80.3202C385.447 77.462 386.355 76.5258 388.749 77.4292C390.377 78.0439 390.853 78.0195 391.589 77.2834C392.368 76.5041 392.301 76.2163 391.024 74.8568C389.795 73.5489 389.709 73.2237 390.458 72.7183C390.944 72.3905 392.765 72.273 394.505 72.4573C397.688 72.7945 401.656 71.5508 400.965 70.4323C400.359 69.4528 396.705 69.1697 393.609 69.8626C390.864 70.477 390.143 70.4273 388.039 69.4784C384.77 68.0046 384.385 66.2803 386.627 63.1559C389.512 59.1345 390.04 57.8529 389.218 56.8625C388.001 55.3961 386.805 55.8742 384.025 58.9391C382.556 60.5586 380.554 62.215 379.576 62.62C378.598 63.025 377.389 64.1481 376.889 65.1158C376.074 66.6918 376.075 67.022 376.901 68.2827C377.408 69.0568 378.37 69.8636 379.038 70.0756C380.877 70.6592 380.513 71.7546 377.883 73.5542C377.074 74.1076 375.995 75.6735 375.485 77.0338C374.846 78.7384 373.875 79.9016 372.36 80.7761C370.225 82.0091 370.128 82.0139 368.948 80.9459C368.279 80.3414 367.571 79.1083 367.372 78.2059C367.174 77.3034 366.274 75.6809 365.372 74.6004L363.732 72.6358L361.652 73.9035C360.509 74.6008 359.033 75.1663 358.374 75.1602C356.472 75.1426 354.27 73.0879 354.122 71.1931C354.049 70.2516 353.805 69.0195 353.579 68.455C353.042 67.1125 355.726 64.5945 358.515 63.8244C361.315 63.0514 366.993 59.072 367.96 57.2049C368.391 56.3743 369.849 54.703 371.201 53.4908C372.553 52.2787 373.659 51.0197 373.659 50.6932C373.659 50.3667 374.94 49.6429 376.506 49.0849C378.072 48.5269 380.702 47.5144 382.351 46.8349C384.374 46.0007 386.905 45.5597 390.143 45.4769C395.801 45.3321 399.501 46.0821 402.554 47.9923C404.086 48.9508 405.295 49.2777 406.451 49.0464C408.521 48.6325 419.553 52.0519 420.013 53.2498C420.475 54.4537 417.311 55.5902 414.588 55.1981C413.341 55.0186 410.763 54.5383 408.858 54.131C406.294 53.5826 405.22 53.5653 404.721 54.0643C404.222 54.5633 404.471 54.9316 405.682 55.4831C406.581 55.8927 407.706 56.9819 408.183 57.9035C409.396 60.2501 413.283 62.1631 415.288 61.4007C417.215 60.6682 417.201 60.4372 415.169 59.3344C413.288 58.3144 414.156 58.0939 416.517 58.9916C418.403 59.7084 420.539 58.8167 420.041 57.5205C419.808 56.9133 420.463 56.475 422.311 56.0015C426.266 54.9881 426.556 54.8433 426.228 54.0413C424.987 51.008 424.969 51.0951 426.775 51.3012C427.738 51.4112 428.442 51.8232 428.362 52.2302C428.283 52.6325 428.784 53.2649 429.477 53.6356C430.518 54.1925 431.338 53.9941 434.199 52.4944C438.395 50.2954 441.661 49.5784 442.879 50.5892C443.558 51.1528 444.684 51.1568 447.943 50.607C450.249 50.2182 452.396 50.0619 452.716 50.2597C453.036 50.4575 453.475 50.3334 453.691 49.9839C454.163 49.2196 452.857 47.4853 452.142 47.9273C451.279 48.4609 448.444 47.5051 449.06 46.8884C449.681 46.2674 466.363 50.1545 467.361 51.1528C468.034 51.8258 470.165 50.928 470.165 49.9715C470.165 49.6491 468.975 48.8074 467.521 48.1009C463.013 45.9106 462.723 42.4027 466.963 41.3385C469.424 40.7209 470.488 41.4334 473.891 45.9771C478.31 51.8761 478.197 51.576 476.754 53.6034C475.685 55.1047 475.62 55.456 476.362 55.7406C477.767 56.2799 480.775 54.3929 481.198 52.7063C481.694 50.7302 480.768 49.046 478.557 47.9024C476.818 47.0033 475.56 45.3559 475.56 43.9789C475.56 43.5095 476.212 43.3925 477.508 43.6292C479.451 43.9841 481.058 43.2794 485.458 40.1433C486.465 39.4261 488.166 38.9535 489.881 38.9146C493.361 38.8357 494.487 38.2515 493.486 37.0451C493.093 36.572 492.896 36.06 493.049 35.9075C493.815 35.142 503.683 33.7625 505.956 34.1034C508.142 34.4313 508.819 34.2539 510.618 32.8816C511.776 31.9986 512.723 31.0385 512.723 30.7479C512.723 30.0153 507.485 30.0807 507.029 30.8191C506.401 31.8351 505.587 31.4816 505.816 30.2923C506.009 29.2882 505.502 29.1248 501.136 28.7848C489.214 27.8566 488.245 27.6388 489.675 26.2085C490.933 24.951 494.017 24.9754 496.598 26.2632C497.656 26.7909 499.408 27.2226 500.492 27.2226C501.576 27.2226 502.629 27.4923 502.833 27.822C503.037 28.1517 504.086 28.4214 505.166 28.4214C508.156 28.4214 513.936 29.7127 513.573 30.2996C513.396 30.5853 513.956 30.8191 514.816 30.8191C515.676 30.8191 517.242 31.2836 518.298 31.8513C519.716 32.6149 521.698 32.8895 525.91 32.9064C530.438 32.9245 531.943 33.1571 533.253 34.041C534.16 34.6525 534.898 35.3241 534.893 35.5335C534.888 35.7428 533.505 36.6752 531.819 37.6053C527.747 39.8518 528.608 40.8308 533.533 39.5546C536.723 38.728 537.456 38.7227 540.097 39.507C542.264 40.1506 543.617 40.2332 545.087 39.8117C546.554 39.3909 548.06 39.4813 550.615 40.1434C553.281 40.8342 554.663 40.9045 556.352 40.4352C560.209 39.3642 564.953 39.6667 567.705 41.159C569.073 41.9008 571.596 43.2733 573.311 44.209C576.352 45.8677 576.484 45.886 578.593 44.9405C580.359 44.1491 581.344 44.0829 583.947 44.5806C586.535 45.0754 587.477 45.0151 588.935 44.2614C590.361 43.524 590.59 43.1616 590.046 42.5058C588.994 41.2376 592.728 40.7662 597.316 41.588C599.417 41.9644 602.081 42.3401 603.235 42.4229C604.389 42.5057 606.643 43.1633 608.244 43.8841C610.687 44.9835 612.53 45.2325 619.676 45.4288C626.457 45.615 628.615 45.8864 630.251 46.7582C631.911 47.643 633.804 47.8681 640.099 47.9295C645.89 47.986 648.485 48.2606 650.203 48.9989C652.976 50.1908 654.085 49.7537 652.576 48.0639C651.49 46.8484 651.496 46.8468 655.683 47.2627C662.7 47.9598 671.116 49.4951 673.966 50.5978C675.449 51.172 678.277 51.8391 680.249 52.0804C682.221 52.3217 685.099 53.1598 686.644 53.9427C688.99 55.1312 689.752 55.2625 691.258 54.7375C693.317 54.0196 694.653 54.5366 697.798 57.2683L699.753 58.9657L698.28 59.3353C696.802 59.7063 692.877 58.7347 691.525 57.663C691.127 57.3479 690.569 57.2337 690.286 57.4091C690.002 57.5845 688.6 57.325 687.17 56.8325C683.822 55.6789 682.335 56.1122 683.86 57.7972C684.901 58.9481 684.879 58.9723 682.893 58.8337C679.175 58.5745 680.197 59.6721 685.654 61.8005C688.621 62.9578 691.176 64.0277 691.331 64.1781C691.894 64.7226 690.039 65.3977 688.689 65.1397C687.208 64.8565 683.556 66.4468 683.556 67.3754C683.556 67.6838 682.979 68.4736 682.274 69.1306C681.096 70.228 680.853 70.253 679.277 69.4383C677.802 68.6758 677.331 68.6678 675.914 69.3818C675.007 69.8385 673.458 70.4066 672.47 70.6442C671.483 70.8818 670.34 71.3549 669.929 71.6956C668.723 72.6968 670.85 75.6109 673.846 77.0611C675.477 77.8509 676.659 78.9092 677.01 79.8956C677.318 80.7613 677.972 82.1831 678.462 83.0551C679.261 84.4763 679.254 84.6787 678.396 85.0083C677.766 85.2498 677.581 85.7339 677.855 86.4198C678.084 86.994 678.344 88.1381 678.431 88.9623C678.519 89.7865 678.783 90.9085 679.019 91.4557C679.325 92.168 679.072 92.5694 678.127 92.8693C677.076 93.2031 676.367 92.801 674.637 90.889C673.444 89.5695 671.453 87.7528 670.213 86.8519C668.973 85.951 666.752 83.6084 665.277 81.6461C662.675 78.1846 662.621 78.0269 663.485 76.357C663.974 75.4104 664.385 74.0156 664.396 73.2574C664.408 72.4993 664.788 71.2091 665.241 70.3903C666.107 68.8264 665.774 67.5778 663.923 65.4546C662.708 64.0605 660.545 65.1055 661.091 66.8234C661.593 68.4061 660.052 68.9189 658.279 67.7589C657.511 67.256 655.742 66.6625 654.348 66.4401C651.955 66.0582 651.778 66.1316 651.158 67.7585C650.797 68.706 650.645 70.204 650.821 71.0873C651.095 72.4635 650.905 72.7451 649.489 73.056C648.525 73.2676 646.876 73.0173 645.531 72.4555C644.054 71.8384 642.663 71.6518 641.662 71.9365C640.802 72.181 637.895 72.4029 635.202 72.4297C630.935 72.4721 630.114 72.6584 628.817 73.8764C627.998 74.6453 627.015 76.5334 626.631 78.0723C626.248 79.6111 625.545 81.4706 625.07 82.2045C624.248 83.4728 624.328 83.601 626.677 84.7994C629.226 86.1002 632.006 86.4428 634.114 85.7161C635.739 85.1556 640.698 89.0217 642.246 92.0566C642.88 93.2998 643.929 94.6003 644.576 94.9466C647.024 96.2569 647.522 104.854 645.474 110.475C644.057 114.366 642.47 115.639 640.141 114.753C639.25 114.415 638.432 114.138 638.322 114.138C638.212 114.138 637.545 115.244 636.84 116.597C635.914 118.373 635.734 119.267 636.19 119.818C637.064 120.87 636.417 122.239 634.671 123.035C633.865 123.402 633.205 123.964 633.205 124.283C633.205 124.602 635.081 126.154 637.373 127.731C640.289 129.738 641.847 131.28 642.562 132.864C643.123 134.11 643.473 135.228 643.339 135.349C643.205 135.47 641.98 136.132 640.617 136.819L638.138 138.069L636.646 134.645C634.977 130.813 633.545 129.272 631.022 128.593C629.752 128.251 629.309 127.766 629.309 126.717C629.309 125.755 628.687 124.937 627.366 124.163C625.442 123.036 625.404 123.037 623.356 124.303C621.306 125.569 621.283 125.57 620.653 124.394C620.304 123.742 620.018 122.795 620.018 122.29C620.018 121.786 619.515 121.103 618.899 120.774C617.983 120.283 617.405 120.58 615.721 122.401C614.59 123.626 613.14 124.925 612.499 125.29C611.506 125.855 611.453 126.094 612.138 126.919C612.579 127.451 614.103 128.536 615.525 129.331C617.786 130.594 618.219 130.666 618.981 129.904C619.706 129.179 620.295 129.152 622.483 129.746L625.113 130.46L623.647 131.44C620.928 133.257 620.071 134.211 619.683 135.851C619.364 137.197 619.554 137.602 620.763 138.153C621.569 138.52 622.795 139.986 623.487 141.411C624.179 142.835 625.562 144.482 626.559 145.072C628.753 146.368 629.389 147.744 628.122 148.454C626.941 149.115 627.505 150.103 629.064 150.103C630.93 150.103 630.941 151.216 629.137 157.643C626.952 165.427 624.979 168.025 619.818 169.913C617.785 170.656 615.313 171.309 614.324 171.364C612.025 171.491 610.242 172.465 608.687 174.442L607.452 176.012L606.876 174.497C606.125 172.522 604.403 172.025 601.93 173.071C599.664 174.029 598.17 175.558 597.568 177.535C597.029 179.304 598.938 182.415 602.099 184.918C604.694 186.974 607.605 192.131 608.289 195.884C608.883 199.148 607.83 201.29 605.003 202.565C603.716 203.145 602.511 204.097 602.326 204.681C601.881 206.081 599.22 207.824 598.732 207.035C598.528 206.706 598.52 205.938 598.714 205.328C598.908 204.718 598.898 203.781 598.693 203.246C598.397 202.476 598.07 202.407 597.123 202.914C596.138 203.441 595.758 203.308 594.962 202.153C593.005 199.317 587.335 194.759 585.764 194.759C585.21 194.759 584.997 195.425 585.091 196.857C585.167 198.011 584.932 200.26 584.569 201.856C583.977 204.456 584.037 204.932 585.153 206.441C585.838 207.368 586.568 208.803 586.776 209.632C586.987 210.474 588.721 212.395 590.704 213.986C594.008 216.636 594.356 217.159 595.747 221.561C596.568 224.162 597.241 226.546 597.241 226.858C597.241 227.875 595.988 227.463 593.375 225.586C590.674 223.646 588.948 220.577 587.51 215.152C586.885 212.797 586.2 211.787 584.256 210.357C581.872 208.603 581.8 208.45 581.992 205.548C582.101 203.9 582.371 201.563 582.592 200.356C582.904 198.657 582.646 197.439 581.452 194.961C580.604 193.202 579.601 190.499 579.224 188.955C578.38 185.507 577.188 184.93 575.082 186.948C574.211 187.782 573.33 188.465 573.124 188.465C572.17 188.465 570.859 186.434 571.174 185.443C571.745 183.644 568.233 177.372 566.178 176.521C565.054 176.055 564.026 174.926 563.338 173.4C562.143 170.75 560.802 169.735 559.462 170.468C558.976 170.734 557.03 171.27 555.139 171.658C551.67 172.369 550.426 173.419 550.901 175.235C551.076 175.903 550.469 176.549 549.013 177.243C547.834 177.806 546.562 178.937 546.189 179.757C545.815 180.578 544.992 181.413 544.36 181.614C543.728 181.814 542.753 182.732 542.193 183.652C541.633 184.573 539.966 186.255 538.488 187.391C536.465 188.946 535.834 189.815 535.934 190.909C536.522 197.301 535.62 202.649 533.419 205.825C531.272 208.923 531.122 209.009 529.305 208.181C528.305 207.726 527.69 206.836 527.435 205.478C527.226 204.365 526.019 201.228 524.752 198.507C517.088 182.045 515.955 178.904 516.608 175.931C517.049 173.923 515.99 170.892 514.967 171.235C514.557 171.372 514.215 171.866 514.206 172.332C514.155 175.068 511.081 175.489 508.68 173.088L507.089 171.497L508.458 170.99C509.998 170.421 509.857 168.884 508.29 169.166C507.733 169.266 506.46 168.659 505.459 167.817C504.459 166.975 503.409 166.287 503.127 166.287C502.845 166.287 502.442 165.744 502.231 165.081C501.679 163.341 498.499 161.826 496.905 162.545C495.471 163.191 482.46 163.056 480.283 162.372C479.498 162.126 478.047 160.998 477.058 159.866C475.271 157.821 475.243 157.812 472.562 158.535C470.022 159.22 469.653 159.155 466.232 157.428C463.275 155.936 462.389 155.131 461.476 153.107C460.312 150.524 457.726 148.654 456.153 149.258C455.658 149.448 455.079 150.392 454.868 151.356C454.564 152.74 454.874 153.64 456.343 155.638C457.367 157.03 458.482 159.2 458.821 160.46C459.55 163.168 460.99 163.973 462.183 162.341C462.903 161.356 463.098 161.322 463.585 162.094C463.896 162.587 464.064 163.26 463.958 163.589C463.625 164.626 467.084 166.331 468.698 165.926C469.513 165.721 471.256 164.332 472.571 162.839C474.641 160.486 475.364 160.327 475.01 162.303C474.772 163.632 475.818 165.191 477.55 166.086C480.225 167.469 483.951 170.549 483.951 171.378C483.951 171.759 483.251 172.726 482.394 173.525C481.538 174.324 480.306 176.015 479.656 177.283C478.077 180.363 473.499 184.869 471.949 184.869C470.158 184.869 467.493 186.381 466.432 188C465.929 188.767 464.608 189.849 463.496 190.405C457.798 193.249 450.939 196.132 449.008 196.495C446.944 196.882 446.777 196.788 445.684 194.632C445.051 193.383 444.332 190.878 444.087 189.064C443.769 186.706 443.151 185.207 441.918 183.799C440.97 182.716 440.194 181.57 440.194 181.252C440.194 180.934 439.112 179.559 437.79 178.197C436.144 176.501 435.08 174.659 434.413 172.352C433.877 170.5 432.788 168.175 431.991 167.186C426.49 160.354 424.861 157.946 424.041 155.43C422.954 152.096 422.035 151.558 421.611 154.007L421.31 155.745L419.282 153.185C416.157 149.24 415.764 151.033 418.697 155.849C420.085 158.128 422.298 162.151 423.614 164.788C424.93 167.426 426.637 170.418 427.406 171.438C428.199 172.489 428.805 174.131 428.805 175.224C428.805 177.483 429.479 178.892 432.126 182.171C433.191 183.49 434.243 185.415 434.464 186.45C434.747 187.776 435.904 189.164 438.391 191.159C442.171 194.191 444.621 197.355 445.229 199.993C445.457 200.984 446.322 202.001 447.419 202.568C449.091 203.432 449.679 203.409 454.962 202.264C458.113 201.581 461.452 200.63 462.38 200.15L464.069 199.276L464.47 201.649C464.834 203.805 464.442 204.843 460.175 213.028C455.587 221.828 455.372 222.118 450.81 225.72C448.242 227.747 445.555 230.229 444.838 231.235C444.122 232.242 441.83 234.959 439.744 237.274C433.659 244.031 432.832 249.974 436.868 257.939C437.893 259.962 438.293 261.493 438.05 262.462C437.848 263.267 437.978 265.3 438.338 266.981C438.906 269.627 438.842 270.334 437.859 272.259C436.442 275.036 435.315 276.034 431.353 278.019C429.622 278.887 428.206 279.852 428.206 280.165C428.206 280.479 426.992 282.101 425.508 283.772C424.025 285.442 422.811 287.08 422.811 287.412C422.811 287.744 423.367 289.106 424.047 290.438C426.085 294.432 424.715 297.326 419.831 299.35C417.772 300.203 417.096 301.944 417.605 305.083C417.872 306.727 417.702 307.275 416.77 307.773C416.127 308.118 414.964 309.399 414.186 310.621C411.729 314.48 404.665 321.308 401.457 322.927C398.779 324.277 398.094 324.397 396.127 323.853C394.393 323.374 392.993 323.45 390.085 324.181C385.375 325.364 385.874 325.413 384.05 323.589ZM463.002 132.404C464.549 131.604 464.77 131.164 464.77 128.881C464.77 127.245 464.42 125.982 463.831 125.494C463.315 125.065 462.479 123.914 461.973 122.935C461.135 121.316 461.139 121.189 462.012 121.524C463.165 121.967 464.77 121.434 464.77 120.61C464.77 120.284 464.212 119.234 463.531 118.277C462.504 116.835 462.093 116.643 461.133 117.156C460.357 117.572 459.975 117.575 459.975 117.168C459.975 116.833 458.905 116.014 457.597 115.347C454.703 113.87 453.674 112.235 454.576 110.548C455.259 109.272 457.7 108.377 458.742 109.022C460.147 109.89 460.561 108.61 459.402 106.982C456.59 103.034 452.676 103.293 447.821 107.751C444.688 110.627 444.416 111.391 446.188 112.339C446.848 112.692 447.387 113.382 447.387 113.872C447.387 114.363 448.453 115.92 449.756 117.334C452.758 120.59 453.308 122.078 452.937 125.931L452.638 129.034L456.756 131.147C459.021 132.309 460.955 133.273 461.053 133.289C461.152 133.306 462.029 132.907 463.002 132.404ZM446.488 299.839C444.795 298.879 444.555 298.373 444.113 294.835C443.76 292.007 443.907 291.393 445.598 288.644C447.317 285.85 447.441 285.312 447.062 282.278C446.515 277.896 447.446 275.594 449.993 275.035C452.392 274.509 457.583 269.926 458.827 267.236L459.778 265.18L460.439 266.63C462.101 270.279 461.932 271.881 459.04 279.883C457.492 284.165 455.832 289.286 455.351 291.264C453.809 297.595 452.933 299.121 450.409 299.878C447.721 300.683 447.981 300.686 446.488 299.839ZM741.76 289.418C739.847 287.325 738.702 285.53 738.702 284.623C738.702 282.611 739.025 282.787 740.755 285.738C741.582 287.15 743.077 289.088 744.077 290.047C745.077 291.005 745.895 292.008 745.895 292.276C745.895 293.429 744.619 292.547 741.76 289.418ZM474.361 288.567C474.361 288.237 474.63 287.968 474.96 287.968C475.29 287.968 475.56 288.237 475.56 288.567C475.56 288.897 475.29 289.167 474.96 289.167C474.63 289.167 474.361 288.897 474.361 288.567ZM790.017 287.474C789.806 287.132 789.925 286.671 790.282 286.451C791.173 285.9 791.488 286.338 790.894 287.3C790.575 287.815 790.266 287.876 790.017 287.474ZM478.557 286.505C478.557 286.359 478.826 286.074 479.156 285.87C479.486 285.666 479.755 285.785 479.755 286.134C479.755 286.483 479.486 286.769 479.156 286.769C478.826 286.769 478.557 286.65 478.557 286.505ZM774.43 280.421C773.846 278.899 774.587 278.366 776.239 279.119C777.665 279.769 777.696 279.868 776.703 280.595C775.312 281.611 774.874 281.578 774.43 280.421ZM778.227 277.755C777.056 277.031 777.867 276.453 779.731 276.684C781.191 276.864 781.225 276.93 780.182 277.573C779.515 277.984 778.717 278.058 778.227 277.755ZM750.241 275.556C749.01 272.905 749.441 271.887 750.714 274.438C752.039 277.093 752.062 277.18 751.44 277.174C751.193 277.171 750.653 276.443 750.241 275.556ZM752.536 275.13C752.51 274.498 752.652 274.144 752.851 274.344C753.05 274.543 753.071 275.06 752.898 275.492C752.707 275.971 752.565 275.829 752.536 275.13ZM801.334 269.375C800.786 268.488 801.306 268.034 802.586 268.284C803.523 268.467 803.533 268.564 802.687 269.265C802.013 269.824 801.631 269.855 801.334 269.375ZM447.087 266.389C446.884 266.059 447.003 265.789 447.352 265.789C447.701 265.789 447.987 266.059 447.987 266.389C447.987 266.718 447.868 266.988 447.722 266.988C447.577 266.988 447.291 266.718 447.087 266.389ZM710.23 260.757C706.437 259.561 704.717 258.45 703.224 256.231C701.519 253.696 698.398 251.778 696.803 252.284C696.159 252.488 695.074 253.6 694.393 254.755C693.233 256.72 693.011 256.828 690.903 256.454C689.664 256.234 687.935 255.386 687.059 254.569C685.946 253.532 685.093 253.204 684.224 253.48C683.54 253.697 682.55 253.633 682.023 253.338C681.199 252.877 681.28 252.661 682.598 251.797C684.124 250.797 684.127 250.784 683.102 248.636C682.28 246.911 681.145 246.012 677.434 244.146C674.881 242.863 671.996 241.813 671.022 241.813C668.793 241.813 667.873 239.758 669.552 238.53C670.551 237.8 670.404 237.619 667.799 236.353C665.032 235.008 664.992 234.951 666.314 234.217C667.061 233.803 668.263 233.454 668.986 233.442C670.391 233.42 672.167 235.446 672.167 237.07C672.167 237.612 672.75 238.796 673.463 239.701C674.739 241.324 674.772 241.331 675.711 240.159C676.234 239.505 677.906 238.258 679.426 237.387L682.19 235.803L686.02 237.531C688.126 238.481 691.117 239.716 692.665 240.274C694.214 240.832 697.311 242.49 699.548 243.959C703.82 246.765 705.676 249.131 704.611 250.413C703.744 251.459 707.152 256.221 710.68 258.893C714.557 261.829 714.492 262.101 710.23 260.757ZM736.317 260.709C735.844 260.139 735.798 259.795 736.196 259.795C736.92 259.795 737.765 260.932 737.349 261.348C737.198 261.499 736.734 261.211 736.317 260.709ZM635.602 258.269C634.734 257.788 634.482 257.435 635.004 257.428C636.074 257.414 637.786 258.411 637.383 258.814C637.227 258.97 636.426 258.725 635.602 258.269ZM645.737 257.477C647.437 255.09 650.097 254.068 652.557 254.858C654.349 255.433 654.377 255.481 652.954 255.538C652.112 255.572 650.147 256.409 648.587 257.398C645.028 259.654 644.169 259.678 645.737 257.477ZM732.708 258.297C731.898 257.321 732.092 257.199 733.558 257.761C734.08 257.962 734.506 258.366 734.506 258.661C734.506 259.49 733.535 259.293 732.708 258.297ZM735.516 257.768C735.29 257.181 735.123 256.25 735.144 255.7C735.169 255.038 735.377 255.189 735.76 256.147C736.079 256.943 736.246 257.874 736.132 258.215C736.018 258.556 735.741 258.355 735.516 257.768ZM781.86 258.332C781.86 258.187 782.13 257.901 782.46 257.697C782.789 257.494 783.059 257.612 783.059 257.962C783.059 258.311 782.789 258.596 782.46 258.596C782.13 258.596 781.86 258.477 781.86 258.332ZM628.556 255.815C628.142 255.64 627.956 255.25 628.142 254.949C628.6 254.208 632.442 254.249 632.906 255C633.109 255.33 632.923 255.603 632.492 255.608C632.06 255.612 631.167 255.732 630.508 255.874C629.849 256.016 628.97 255.989 628.556 255.815ZM637.455 255.365C636.366 254.052 637.621 253.653 640.445 254.413C643.29 255.179 643.28 255.299 640.332 255.831C638.8 256.108 637.959 255.971 637.455 255.365ZM727.453 255C727.038 254.336 726.964 253.801 727.287 253.801C727.608 253.801 728.159 254.341 728.512 255C728.865 255.659 728.94 256.199 728.678 256.199C728.416 256.199 727.864 255.659 727.453 255ZM731.206 254.397C729.604 252.626 730.462 252.348 732.111 254.103C732.884 254.926 733.242 255.599 732.906 255.599C732.57 255.599 731.805 255.058 731.206 254.397ZM618.82 254.293C616.677 253.996 613.655 253.337 612.105 252.828C610.556 252.32 608.729 252.081 608.047 252.297C606.675 252.733 600.837 251.017 600.837 250.178C600.837 248.261 606.211 248.116 609.066 249.955C610.132 250.641 610.973 250.687 613.227 250.182C615.724 249.622 616.244 249.691 617.711 250.776C618.624 251.451 619.642 252.003 619.974 252.003C621.159 252.003 624.757 254.008 624.453 254.499C624.283 254.775 623.822 254.962 623.43 254.916C623.037 254.871 620.962 254.59 618.82 254.293ZM726.414 251.403C725.818 250.744 725.599 250.205 725.929 250.205C726.258 250.205 727.016 250.744 727.613 251.403C728.21 252.063 728.428 252.602 728.099 252.602C727.769 252.602 727.011 252.063 726.414 251.403ZM722.634 250.644C722.294 250.234 721.842 249.09 721.629 248.103C721.288 246.513 721.326 246.445 721.965 247.507C722.361 248.167 723.07 249.151 723.54 249.696C724.038 250.272 724.156 250.832 723.824 251.038C723.51 251.232 722.975 251.055 722.634 250.644ZM709.94 248.738L708.451 247.914L710.759 247.481C712.029 247.243 713.98 246.247 715.096 245.267C716.313 244.198 717.12 243.811 717.114 244.298C717.101 245.517 716.363 246.456 714.123 248.109C711.782 249.836 711.893 249.819 709.94 248.738ZM597.499 246.404C595.296 245.15 591.324 240.296 590.031 237.279C589.334 235.652 587.735 232.971 586.479 231.323C585.223 229.675 583.781 227.517 583.274 226.528C582.768 225.539 581.231 223.651 579.858 222.332C576.963 219.551 575.182 216.63 576.396 216.651C577.968 216.678 582.017 218.929 583.754 220.742C588.544 225.743 589.526 226.633 591.788 228.026C593.97 229.371 595.003 230.77 595.107 232.522C595.127 232.852 595.747 233.796 596.487 234.62C597.226 235.444 598.62 236.994 599.585 238.065C600.551 239.135 601.515 240.805 601.728 241.776C602.426 244.953 599.867 247.754 597.499 246.404ZM476.758 246.009C476.758 245.679 477.028 245.409 477.358 245.409C477.687 245.409 477.957 245.679 477.957 246.009C477.957 246.338 477.687 246.608 477.358 246.608C477.028 246.608 476.758 246.338 476.758 246.009ZM635.3 246.003C635.095 245.671 635.093 244.874 635.294 244.232C635.498 243.59 635.25 242.435 634.743 241.66C633.908 240.386 633.916 240.119 634.827 238.818C635.381 238.028 636.033 235.907 636.278 234.105C636.58 231.881 637.176 230.375 638.132 229.418C639.44 228.11 639.769 228.052 642.71 228.61C645.235 229.089 646.228 229.03 647.603 228.319C649.905 227.128 650.073 227.182 649.308 228.859C648.337 230.992 646.395 231.673 644.348 230.601C640.693 228.685 635.843 231.532 638.402 234.091C639.342 235.031 639.863 235.117 641.605 234.617C644.591 233.761 645.768 233.918 643.914 234.925C641.815 236.066 641.417 237.332 642.498 239.423C642.99 240.375 643.393 241.851 643.393 242.703C643.393 244.067 643.25 244.176 642.193 243.611C641.533 243.257 640.581 241.982 640.078 240.777C639.169 238.601 639.153 238.594 637.99 239.757C636.97 240.777 636.901 241.23 637.459 243.252C637.964 245.079 637.93 245.683 637.3 246.082C636.241 246.754 635.749 246.734 635.298 246.003H635.3ZM717.54 242.806C716.975 241.944 715.681 240.808 714.664 240.283C713.648 239.757 712.951 239.192 713.116 239.027C714.048 238.095 719.249 242.328 718.806 243.658C718.67 244.067 718.126 243.701 717.54 242.806ZM623.41 240.811C622.506 240.337 621.288 240.102 620.703 240.287C619.212 240.761 613.288 239.555 612.701 238.659C612.234 237.946 610.861 233.554 610.127 230.424C609.925 229.563 610.127 228.447 610.598 227.801C611.284 226.863 611.639 226.792 612.726 227.373C613.872 227.987 614.116 227.882 614.744 226.502C615.138 225.639 616.446 224.429 617.653 223.814C618.931 223.162 620.159 221.942 620.594 220.891C621.096 219.68 622.012 218.866 623.384 218.413C624.507 218.042 626.13 216.817 626.989 215.69C627.849 214.563 628.872 213.64 629.263 213.64C629.654 213.64 630.836 214.531 631.891 215.619L633.809 217.598L632.272 219.665C630.525 222.014 630.617 224.034 632.596 226.813L633.794 228.495L632.301 229.473C631.48 230.011 630.809 230.783 630.81 231.187C630.816 232.56 626.974 240.473 626.012 241.075C625.341 241.493 624.561 241.414 623.41 240.811ZM658.231 240.8C656.991 240.476 656.818 239.415 658.006 239.415C658.46 239.415 659.728 239.595 660.825 239.814C662.515 240.152 662.641 240.283 661.65 240.671C660.348 241.18 659.769 241.202 658.231 240.8ZM753.688 233.157C753.688 233.011 753.957 232.726 754.287 232.522C754.617 232.318 754.886 232.437 754.886 232.786C754.886 233.135 754.617 233.421 754.287 233.421C753.957 233.421 753.688 233.302 753.688 233.157ZM656.131 231.531C655.652 231.052 655.624 230.496 656.039 229.72C656.368 229.105 656.478 228.342 656.283 228.026C655.742 227.152 657.096 225.029 658.195 225.029C659.076 225.029 659.073 225.132 658.157 226.144C657.365 227.019 657.276 227.598 657.747 228.836C658.699 231.339 657.664 233.064 656.131 231.531ZM355.077 229.56C355.077 229.415 355.347 229.129 355.677 228.925C356.006 228.722 356.276 228.841 356.276 229.19C356.276 229.539 356.006 229.825 355.677 229.825C355.347 229.825 355.077 229.706 355.077 229.56ZM770.771 228.026C770.567 227.697 770.686 227.427 771.035 227.427C771.384 227.427 771.67 227.697 771.67 228.026C771.67 228.356 771.551 228.626 771.406 228.626C771.26 228.626 770.975 228.356 770.771 228.026ZM358.674 222.367C358.674 222.222 358.944 221.936 359.273 221.732C359.603 221.529 359.873 221.648 359.873 221.997C359.873 222.346 359.603 222.632 359.273 222.632C358.944 222.632 358.674 222.513 358.674 222.367ZM646.998 213.355C645.855 210.688 645.702 210.568 643.943 210.954C642.189 211.34 642.128 211.293 642.785 210.065C643.329 209.048 643.834 208.846 645.123 209.129C646.366 209.402 647.16 209.126 648.378 207.997C649.264 207.176 649.995 206.02 650.002 205.427C650.021 203.914 652.247 208.988 652.755 211.701C653.14 213.76 653.092 213.872 652.156 213.096C650.765 211.944 649.427 213.139 650.567 214.514C651.023 215.063 651.081 215.439 650.711 215.439C650.368 215.439 649.663 215.601 649.144 215.8C648.448 216.067 647.886 215.427 646.998 213.355ZM537.708 214.414C537.038 213.326 536.657 208.441 537.141 207.145C537.654 205.77 537.693 205.787 539.22 208.044C541.05 210.749 541.636 212.483 541.032 213.41C540.454 214.296 538.077 215.014 537.708 214.414ZM671.568 211.313C671.568 210.984 671.838 210.547 672.167 210.344C672.497 210.14 672.767 210.243 672.767 210.573C672.767 210.902 672.497 211.339 672.167 211.542C671.838 211.746 671.568 211.643 671.568 211.313ZM765.676 211.243C765.676 210.913 765.795 210.643 765.94 210.643C766.086 210.643 766.371 210.913 766.575 211.243C766.779 211.572 766.66 211.842 766.311 211.842C765.962 211.842 765.676 211.572 765.676 211.243ZM629.609 207.78C629.609 207.523 630.811 205.972 632.279 204.333C634.432 201.931 634.955 201.591 634.977 202.584C634.992 203.261 634.091 204.812 632.975 206.031C631.082 208.096 629.609 208.862 629.609 207.78ZM642.592 206.18C642.373 205.611 642.418 204.747 642.69 204.26C643.113 203.505 643.288 203.498 643.88 204.211C644.41 204.849 644.386 205.304 643.781 206.131C643.038 207.147 642.964 207.15 642.592 206.18ZM183.566 203.845C183.933 203.402 184.056 202.863 183.839 202.646C183.623 202.429 184.004 202.251 184.688 202.251C185.635 202.251 185.856 202.536 185.617 203.45C185.435 204.146 184.799 204.649 184.101 204.649C183.163 204.649 183.046 204.472 183.566 203.845ZM646.614 203.686C646.391 203.062 646.098 202.349 645.965 202.102C645.832 201.854 645.976 201.652 646.287 201.652C646.885 201.652 647.727 204.113 647.282 204.559C647.138 204.703 646.837 204.31 646.614 203.686ZM640.54 202.122C639.698 201.108 640.518 199.664 641.777 199.945C642.567 200.121 642.596 200.37 641.962 201.543C641.351 202.674 641.087 202.782 640.54 202.122ZM647.626 200.062C646.939 199.188 646.476 198.372 646.598 198.25C647.085 197.763 648.771 198.836 649.667 200.204C651.046 202.308 649.297 202.186 647.626 200.062ZM637.772 197.742C637.239 197.208 636.802 196.461 636.802 196.081C636.802 195.702 637.394 195.983 638.117 196.707C638.841 197.43 639.277 198.177 639.088 198.367C638.898 198.557 638.306 198.275 637.772 197.742ZM167.261 197.656C167.041 197.436 166.861 196.978 166.861 196.637C166.861 196.261 167.14 196.297 167.571 196.727C167.961 197.117 168.141 197.576 167.97 197.746C167.8 197.916 167.481 197.876 167.261 197.656ZM163.864 196.857C163.864 196.527 163.983 196.257 164.129 196.257C164.274 196.257 164.56 196.527 164.763 196.857C164.967 197.186 164.848 197.456 164.499 197.456C164.15 197.456 163.864 197.186 163.864 196.857ZM192.037 195.658C192.037 195.328 192.156 195.059 192.301 195.059C192.446 195.059 192.732 195.328 192.936 195.658C193.14 195.988 193.021 196.257 192.671 196.257C192.322 196.257 192.037 195.988 192.037 195.658ZM643.802 195.567C643.201 195.228 642.062 195.113 641.27 195.312C640.11 195.603 639.309 195.136 637.137 192.901C634.067 189.743 633.471 188.411 634.371 186.729C634.719 186.079 635.004 184.736 635.004 183.744C635.004 180.491 637.183 180.622 638.781 183.972C639.666 185.828 639.671 186.227 638.839 188.218C637.944 190.361 637.961 190.456 639.559 192.124C640.713 193.328 641.578 193.737 642.49 193.508C643.261 193.315 644.092 193.554 644.546 194.101C645.625 195.401 645.154 196.329 643.802 195.567ZM188.44 191.797C188.44 191.652 188.71 191.366 189.04 191.162C189.369 190.959 189.639 191.078 189.639 191.427C189.639 191.776 189.369 192.061 189.04 192.061C188.71 192.061 188.44 191.943 188.44 191.797ZM282.548 189.664C282.548 189.334 282.818 189.064 283.148 189.064C283.477 189.064 283.747 189.334 283.747 189.664C283.747 189.993 283.477 190.263 283.148 190.263C282.818 190.263 282.548 189.993 282.548 189.664ZM186.642 187.337C186.642 187.007 186.912 186.571 187.241 186.367C187.571 186.163 187.841 186.266 187.841 186.596C187.841 186.926 187.571 187.362 187.241 187.566C186.912 187.77 186.642 187.667 186.642 187.337ZM181.551 184.875C181.341 184.536 181.582 184.435 182.115 184.64C183.154 185.038 183.344 185.468 182.481 185.468C182.171 185.468 181.753 185.201 181.551 184.875ZM276.854 184.868C276.65 184.539 276.769 184.269 277.118 184.269C277.467 184.269 277.753 184.539 277.753 184.868C277.753 185.198 277.634 185.468 277.489 185.468C277.343 185.468 277.057 185.198 276.854 184.868ZM183.945 183.67C183.741 183.34 183.86 183.07 184.209 183.07C184.558 183.07 184.844 183.34 184.844 183.67C184.844 183.999 184.725 184.269 184.579 184.269C184.434 184.269 184.148 183.999 183.945 183.67ZM186.642 183.67C186.642 183.34 186.761 183.07 186.906 183.07C187.052 183.07 187.337 183.34 187.541 183.67C187.745 183.999 187.626 184.269 187.277 184.269C186.928 184.269 186.642 183.999 186.642 183.67ZM145.432 182.074C145.02 181.908 144.683 181.524 144.683 181.222C144.683 180.358 147.329 180.58 148.614 181.553C149.72 182.389 149.688 182.431 147.98 182.404C146.991 182.389 145.844 182.24 145.432 182.074ZM160.6 181.734C160.062 181.433 158.875 181.351 157.961 181.552C157.047 181.753 155.641 181.654 154.837 181.332C153.544 180.815 153.658 180.754 155.826 180.804C159.013 180.879 159.864 180.36 159.049 178.838C158.471 177.758 158.645 177.675 161.505 177.675C164.271 177.675 168.261 178.944 168.938 180.039C169.388 180.766 161.673 182.335 160.6 181.734ZM172.098 182.113C171.387 181.402 172.27 180.673 173.84 180.673C174.782 180.673 175.26 180.955 175.106 181.422C174.83 182.261 172.729 182.744 172.098 182.113ZM605.76 181.16C604.173 179.572 605.744 177.675 608.645 177.675C609.932 177.675 609.932 177.686 608.829 179.575C607.543 181.778 606.775 182.174 605.76 181.16ZM177.051 181.036C177.051 180.907 177.456 180.646 177.95 180.456C178.445 180.266 178.85 180.372 178.85 180.691C178.85 181.011 178.445 181.272 177.95 181.272C177.456 181.272 177.051 181.166 177.051 181.036ZM151.14 176.74C150.955 176.555 149.69 176.388 148.328 176.369C146.45 176.343 145.999 176.158 146.46 175.603C146.905 175.067 146.266 174.352 144.062 172.924C139.741 170.125 137.329 169.578 134.426 170.739C131.704 171.828 131.496 171.859 131.496 171.173C131.496 169.918 136.266 168.539 139.701 168.8C142.987 169.049 144.826 169.749 151.276 173.199C156.578 176.036 156.584 176.041 154.873 176.529C152.93 177.083 151.561 177.161 151.14 176.74ZM155.472 171.681C156.635 170.93 157.271 170.93 157.271 171.681C157.271 172.011 156.664 172.277 155.922 172.272C154.831 172.264 154.745 172.151 155.472 171.681ZM632.846 170.618C632.483 170.379 631.859 169.562 631.46 168.804C630.857 167.66 630.92 167.105 631.825 165.555C633.223 163.161 634.167 162.862 634.621 164.67C635.098 166.572 633.719 171.195 632.846 170.618ZM159.408 169.819C159.808 169.172 162.066 169.099 162.066 169.733C162.065 169.981 161.393 170.222 160.571 170.269C159.749 170.316 159.226 170.114 159.408 169.819ZM147.555 164.042C146.596 162.942 146.736 161.491 147.8 161.491C148.141 161.491 148.282 162.018 148.113 162.661C147.945 163.305 148.116 163.942 148.493 164.078C148.87 164.213 149.02 164.498 148.825 164.71C148.631 164.922 148.059 164.621 147.555 164.042ZM151.037 159.333C150.823 158.778 150.784 158.188 150.949 158.023C151.113 157.858 151.423 158.178 151.636 158.734C151.849 159.29 151.889 159.88 151.724 160.045C151.559 160.209 151.25 159.889 151.037 159.333ZM147.28 158.794C147.28 158.299 147.794 157.895 148.422 157.895C149.437 157.895 149.464 157.995 148.665 158.794C148.17 159.288 147.656 159.693 147.523 159.693C147.39 159.693 147.28 159.288 147.28 158.794ZM649.989 145.653C649.989 145.184 649.334 144.022 648.534 143.07C646.634 140.813 647.307 139.306 649.557 140.78C651.174 141.84 652.019 144.005 651.423 145.559C650.97 146.738 649.989 146.802 649.989 145.653ZM184.844 142.046C184.844 141.9 185.113 141.615 185.443 141.411C185.773 141.207 186.043 141.326 186.043 141.675C186.043 142.024 185.773 142.31 185.443 142.31C185.113 142.31 184.844 142.191 184.844 142.046ZM653.33 141.309C652.941 140.296 653.858 139.339 655.234 139.322C656.186 139.31 656.204 140.651 655.264 141.591C654.287 142.568 653.785 142.495 653.33 141.309ZM658.806 139.121C657.642 137.345 655.998 137.101 652.235 138.146C650.705 138.571 649.65 138.576 648.938 138.161C648.362 137.826 648.208 137.543 648.594 137.533C648.981 137.523 650.11 136.831 651.104 135.995C652.385 134.917 653.324 134.58 654.336 134.834C655.409 135.103 656.567 134.588 659.003 132.758C663.745 129.194 664.174 128.071 662.245 124.264C660.393 120.609 660.909 119.433 663.653 121.054C665.65 122.233 667.531 125.612 666.985 127.037C666.788 127.55 667.081 129.159 667.637 130.613C668.422 132.671 668.497 133.536 667.973 134.515C667.203 135.954 665.06 136.915 662.624 136.915C661.259 136.915 660.851 137.266 660.405 138.821L659.859 140.727L658.806 139.121ZM415.978 137.075C415.262 136.36 415.643 135.717 416.782 135.717C417.421 135.717 418.112 135.447 418.315 135.117C418.873 134.216 419.823 134.397 419.463 135.336C419.093 136.299 416.497 137.595 415.978 137.075ZM395.538 136.038L393.74 135.214L396.137 135.174C399.123 135.124 401.323 135.684 400.89 136.384C400.408 137.164 397.601 136.983 395.538 136.038ZM371.324 130.058C368.925 128.83 368.812 128.677 370.064 128.35C371.564 127.957 374.884 128.445 374.816 129.048C374.793 129.254 374.59 129.869 374.366 130.415C373.998 131.312 373.706 131.278 371.324 130.058ZM359.309 123.573C358.79 122.085 358.831 121.516 359.505 120.842C360.724 119.623 361.671 120.479 361.671 122.8C361.671 125.542 360.167 126.034 359.309 123.573ZM345.253 124.071C345.678 122.963 347.502 122.776 347.135 123.878C346.998 124.29 346.437 124.714 345.889 124.821C345.193 124.956 345.001 124.729 345.253 124.071ZM658.448 117.23C657.351 115.689 657.321 115.405 658.131 114.248C658.927 113.112 658.924 112.771 658.104 111.186C656.756 108.578 656.945 108.42 659.284 110.204C660.44 111.085 662.721 112.203 664.353 112.688C667.726 113.69 668.539 114.476 666.781 115.034C666.117 115.245 665.574 115.809 665.574 116.287C665.574 116.939 665.16 117.052 663.925 116.736C660.763 115.926 659.864 116.124 660.067 117.584C660.316 119.373 659.912 119.285 658.448 117.23ZM360.272 117.934C359.577 117.239 359.839 116.077 360.772 115.719C361.421 115.47 361.671 115.785 361.671 116.854C361.671 118.293 361.084 118.746 360.272 117.934ZM654.645 105.296C654.136 104.719 652.91 102.628 651.921 100.65C650.931 98.671 648.315 95.0373 646.107 92.5749C643.64 89.8238 642.387 87.9997 642.856 87.8434C643.276 87.7035 644.176 88.3302 644.856 89.2362C646.505 91.4323 648.536 93.3392 651.74 95.7006C654.396 97.658 655.71 99.4698 653.996 98.8121C652.02 98.0537 652.513 99.8538 655.071 102.733C656.562 104.412 657.781 105.912 657.781 106.066C657.781 106.795 655.465 106.226 654.645 105.296ZM216.013 104.247C216.013 103.753 216.274 103.348 216.594 103.348C216.913 103.348 217.019 103.753 216.829 104.247C216.64 104.742 216.378 105.146 216.249 105.146C216.119 105.146 216.013 104.742 216.013 104.247ZM212.881 102.313L210.648 102.079L214.85 97.9181C217.161 95.6298 219.354 93.7575 219.724 93.7575C220.113 93.7575 219.996 94.1979 219.445 94.8069C218.197 96.1858 219.048 97.7349 221.329 98.2357C222.324 98.4544 223.317 99.2173 223.7 100.059C224.315 101.41 224.211 101.547 222.134 102.124C219.956 102.729 217.355 102.782 212.881 102.313ZM66.8225 98.0126C64.7461 96.073 64.5145 95.2559 65.8914 94.7275C67.1244 94.2544 69.4005 95.7969 70.2632 97.6903C71.1684 99.6771 71.1524 99.7517 69.8196 99.7517C69.1951 99.7517 67.8464 98.9691 66.8225 98.0126ZM330.801 94.9672C331.46 94.642 332.758 94.1024 333.684 93.7681C335.726 93.0316 335.387 92.2471 332.805 91.7308C331.034 91.3766 330.972 91.2865 331.985 90.5455C332.589 90.1044 332.906 89.4591 332.692 89.1115C332.472 88.7565 333.089 88.205 334.099 87.853C335.087 87.5083 335.896 86.9601 335.896 86.6348C335.896 85.2502 334.647 82.9212 333.952 83.0118C332.352 83.2205 331.611 82.9384 331.869 82.2188C332.017 81.8067 331.895 80.9975 331.598 80.4206C330.827 78.9204 332.6 75.8179 334.248 75.7843C334.495 75.7797 334.63 76.1059 334.547 76.5101C334.465 76.9144 335.031 77.3412 335.804 77.4586L337.211 77.672L335.867 79.1029L334.523 80.5337L336.038 81.1099C337.665 81.7282 339.232 83.7429 340.829 87.2662C341.593 88.9543 342.096 89.3955 342.989 89.1621C344.821 88.683 345.038 89.9244 343.319 91.0504C342.155 91.8133 341.934 92.2431 342.444 92.7531C342.954 93.263 341.949 93.6052 338.462 94.1084C335.897 94.4786 332.854 94.9563 331.7 95.17C330.095 95.4672 329.884 95.4195 330.801 94.9672ZM320.693 91.6561C320.488 91.1217 320.721 89.9077 321.212 88.9583C321.776 87.8689 321.885 87.0958 321.508 86.8629C320.469 86.2209 320.859 85.4016 322.385 85.0186C323.195 84.8152 324.172 84.2706 324.556 83.8084C325.355 82.8462 329.047 82.6691 329.602 83.5664C329.805 83.8955 329.551 84.7648 329.038 85.4981C328.524 86.2313 328.104 87.5485 328.104 88.4251C328.104 89.7619 327.693 90.1616 325.556 90.9032C324.155 91.3896 322.571 91.9765 322.037 92.2075C321.41 92.4784 320.933 92.2826 320.693 91.6561ZM331.7 85.7008C331.7 85.5554 331.97 85.2698 332.3 85.066C332.629 84.8623 332.899 84.9812 332.899 85.3304C332.899 85.6795 332.629 85.9651 332.3 85.9651C331.97 85.9651 331.7 85.8462 331.7 85.7008ZM65.6801 82.8127C65.0929 82.1052 65.1303 81.7755 65.8671 81.1639C67.0852 80.153 67.6894 80.8388 66.9804 82.4277C66.4915 83.5234 66.3136 83.5761 65.6801 82.8127ZM64.7427 78.3047C64.5403 77.9772 64.7763 77.3759 65.2672 76.9685C66.2418 76.1596 66.4453 76.7939 65.626 78.0869C65.313 78.5809 64.9662 78.6664 64.7427 78.3047ZM25.9989 77.9223C25.9989 77.5007 27.8165 76.7632 30.3949 76.1386C31.3724 75.9018 31.9503 75.9589 31.7561 76.2731C31.5705 76.5734 30.6712 76.9699 29.7578 77.1542C28.8443 77.3386 27.6249 77.672 27.0479 77.8952C26.471 78.1184 25.9989 78.1306 25.9989 77.9223ZM382.201 71.1822C381.095 70.736 381.291 70.0482 382.55 69.9533C383.155 69.9078 383.649 70.255 383.649 70.7249C383.649 71.6173 383.442 71.6829 382.201 71.1822ZM250.48 68.1186C246.686 66.05 244.873 62.872 245.972 60.2185C246.492 58.9627 246.508 58.1731 246.031 57.2819C245.039 55.4272 246.334 53.2537 249.646 51.2159C251.219 50.248 252.789 48.9263 253.136 48.2787C254.096 46.4847 253.241 43.4102 251.57 42.6489C250.724 42.2635 250.264 41.6542 250.451 41.1673C250.876 40.0584 248.881 36.2711 246.893 34.4155C245.43 33.0498 244.801 32.9138 239.792 32.881C232.97 32.8363 231.7 32.4571 231.812 30.4999C231.859 29.6869 232.04 29.0215 232.213 29.0212C232.387 29.021 234.814 28.7397 237.608 28.396C241.175 27.9573 244.373 27.0524 248.349 25.3569C254.504 22.7319 254.973 22.6806 269.661 23.0259C274.299 23.1349 278.565 22.7916 284.047 21.8686C289.151 21.0089 292.907 20.6849 294.935 20.9291C296.658 21.1367 299.154 20.9998 300.562 20.6205C303.831 19.7402 312.324 20.7991 315.665 22.5033C317.64 23.5108 318.685 23.6439 322.017 23.3121C325.617 22.9537 325.889 23.0009 324.807 23.7955C324.148 24.2798 322.125 24.8713 320.311 25.1101C316.377 25.6281 312.761 28.4325 313.72 30.223C314.133 30.9954 313.836 31.6547 312.5 32.935C311.529 33.8654 310.592 35.0744 310.419 35.6218C310.001 36.9367 304.702 39.3839 302.074 39.4751C299.156 39.5764 298.851 40.1968 301.108 41.4399C302.174 42.0271 303.73 43.0277 304.566 43.6634L306.086 44.8192L304.712 45.3276C303.659 45.7173 302.804 45.4661 301.051 44.2513C298.673 42.6028 296.113 42.5946 297.479 44.2397C298.011 44.8813 297.883 45.1305 296.886 45.3911C294.659 45.9736 296.235 47.1255 298.691 46.7105C300.255 46.4463 301.134 46.5855 301.623 47.1747C302.205 47.8756 301.446 48.2002 297.08 49.1178C294.198 49.7237 290.356 50.2416 288.542 50.2687C285.174 50.319 282.746 51.286 279.176 54.0001C278.011 54.8851 275.537 55.7621 272.641 56.3162C266.589 57.4741 264.544 58.8133 260.897 64.0058C257.968 68.1765 256.202 69.731 254.376 69.7457C253.881 69.7498 252.128 69.0175 250.48 68.1186ZM207.978 64.1096C206.691 63.3187 205.114 61.8435 204.473 60.8315C203.222 58.8558 202.069 58.6048 198.691 59.5733C197.548 59.9012 196.265 59.9328 195.752 59.6457C193.977 58.6524 197.183 57.6754 200.754 58.1216C203.47 58.4609 204.073 58.3642 204.39 57.539C205.026 55.8809 207.938 54.6926 209.557 55.4303C210.554 55.8845 211.46 55.8718 212.733 55.3859C214.446 54.7322 214.47 54.6732 213.351 53.8517C212.711 53.3818 211.981 52.9973 211.728 52.9973C211.475 52.9973 210.563 51.7932 209.7 50.3215C208.838 48.8497 207.221 47.0826 206.108 46.3946C204.216 45.2253 203.966 45.2048 202.274 46.0799C200.794 46.8449 199.939 46.8985 197.599 46.3729C196.023 46.0191 193.823 45.9 192.71 46.1081C190.779 46.4692 187.241 45.5242 187.241 44.6474C187.241 43.0367 192.318 39.4217 195.333 38.8852L197.731 38.4585L196.017 40.2845C193.653 42.8034 194.542 43.9626 197.109 41.7085C198.198 40.7523 200.081 39.784 201.292 39.5568C203.143 39.2095 203.936 39.436 206.26 40.9754C209.353 43.0238 209.591 43.0787 211.335 42.1454C212.385 41.5833 212.774 41.7377 213.915 43.1679C214.704 44.1572 216.465 45.2344 218.183 45.778C220.921 46.6442 221.108 46.8327 221.108 48.721C221.108 50.137 221.517 51.0305 222.478 51.718C226.501 54.5949 226.413 54.4761 225.543 55.8698C224.349 57.7808 223.407 57.9193 220.765 56.5718C218.928 55.6344 218.125 55.5058 217.2 56.0009C216.068 56.6067 216.056 56.7361 216.967 58.4981C217.715 59.9442 217.783 60.6745 217.275 61.7898C216.649 63.1641 216.549 63.1854 214.849 62.3061C211.506 60.5776 209.255 61.715 212.374 63.557C213.35 64.134 214.014 64.8264 213.847 65.0956C213.267 66.035 210.301 65.5367 207.978 64.1096ZM331.101 64.8857C331.101 64.611 331.505 64.3862 332 64.3862C332.494 64.3862 332.899 64.611 332.899 64.8857C332.899 65.1605 332.494 65.3853 332 65.3853C331.505 65.3853 331.101 65.1605 331.101 64.8857ZM185.378 61.6621C184.196 61.0409 183.278 60.9877 181.623 61.4446C178.81 62.2215 177.826 61.653 179.253 60.0753C181.081 58.0556 182.321 57.6584 184.525 58.386C187.007 59.2049 188.108 60.422 187.439 61.6057C187.012 62.3603 186.721 62.3683 185.378 61.6621ZM304.427 61.3892C303.438 60.7389 302.179 60.349 301.629 60.5229C300.872 60.7623 300.704 60.5545 300.937 59.666C301.293 58.3023 306.56 56.334 308.34 56.8991C308.961 57.0961 310.548 56.9341 311.866 56.5391C313.935 55.919 314.484 55.966 315.883 56.8827L317.504 57.9444L316.06 59.0692C314.842 60.0186 312.582 60.8424 307.124 62.327C306.63 62.4615 305.416 62.0395 304.427 61.3892ZM141.686 50.1996C140.862 50.0694 138.854 49.3643 137.224 48.6329L134.261 47.3029L138.423 47.0032C140.712 46.8384 142.585 46.4338 142.585 46.1041C142.585 45.7744 140.967 45.3601 138.989 45.1834C136.377 44.9501 135.884 44.786 137.19 44.584C139.377 44.2458 139.534 43.2989 137.49 42.7826C136.018 42.4108 136.029 42.3881 138.099 41.496C141.688 39.9497 145.51 39.6535 148.897 40.6593C151.678 41.485 152.112 41.4815 153.423 40.6225C154.35 40.0151 154.9 39.9134 154.948 40.3407C154.989 40.7083 155.057 41.3238 155.098 41.7084C155.237 43.007 156.433 42.8389 157.859 41.3203C159.18 39.9144 161.469 39.241 161.464 40.2598C161.463 40.5071 160.93 41.5823 160.279 42.6492L159.097 44.5891L161.031 45.5982L162.965 46.6073L159.789 48.0569C156.923 49.365 156.335 49.4398 153.766 48.8236C151.276 48.2261 150.561 48.2944 148.051 49.3702C145.217 50.5853 144.619 50.6632 141.686 50.1996ZM165.726 49.7773C165.185 49.125 165.408 48.8039 166.807 48.2244C167.781 47.821 169.178 47.6865 169.927 47.9241C171.225 48.3361 171.195 48.4009 169.222 49.4519C166.704 50.7928 166.579 50.8045 165.726 49.7773ZM331.101 47.0032C332.263 46.2522 332.899 46.2522 332.899 47.0032C332.899 47.3329 332.292 47.5985 331.55 47.5935C330.46 47.586 330.374 47.4731 331.101 47.0032ZM441.093 45.3403C438.029 44.1298 438.092 44.1959 438.983 43.1215C439.4 42.619 439.506 42.1993 439.219 42.1889C438.931 42.1783 439.235 41.7621 439.894 41.2639C440.554 40.7657 441.098 40.1674 441.103 39.9343C441.124 39.0477 443.565 36.7097 445.289 35.924C446.278 35.4734 448.841 34.9655 450.984 34.7954C453.126 34.6253 455.997 34.3136 457.362 34.1027C458.815 33.8784 459.999 33.9701 460.218 34.324C460.643 35.0117 459.832 35.304 455.179 36.1398C450.563 36.9692 447.788 38.2616 445.96 40.4337C444.035 42.7219 443.97 44.1667 445.739 45.4001L447.087 46.3409L445.289 46.3141C444.3 46.2994 442.412 45.8611 441.093 45.3403ZM127.153 43.6023C126.186 42.6356 126.407 42.4251 131.045 39.8861C136.479 36.9113 139.209 36.5164 144.084 38.0004L146.781 38.8216L143.184 39.5348C140.243 40.118 134.01 42.2024 129.087 44.2488C128.585 44.4575 127.719 44.1678 127.153 43.6023ZM170.458 42.8265C170.458 42.5073 169.716 41.8204 168.809 41.3001L167.161 40.354L169.368 40.701C170.936 40.9477 171.717 40.8007 172.065 40.1935C172.48 39.4714 176.295 38.0263 177.816 38.0154C178.072 38.0133 177.863 38.8203 177.352 39.8082C176.149 42.135 170.458 44.6265 170.458 42.8265ZM179.79 41.0763C178.931 39.6868 184.797 37.5358 187.288 38.3266C189.104 38.9029 187.89 39.8933 184.723 40.4198C183.306 40.6553 181.702 41.0376 181.158 41.2692C180.614 41.5008 179.999 41.414 179.79 41.0763ZM198.93 36.6624C194.974 36.3477 191.663 36.0218 191.573 35.9381C191.037 35.4408 192.374 33.8219 193.812 33.226C195.227 32.6401 195.879 32.7178 197.815 33.7034C199.703 34.6641 200.92 34.8238 204.426 34.5711C206.79 34.4007 209.487 34.4546 210.42 34.6908L212.117 35.1202L210.019 36.2413C208.865 36.8579 207.517 37.3336 207.022 37.2984C206.527 37.2633 202.886 36.9771 198.93 36.6624ZM371.428 34.2126C368.483 32.7052 368.199 32.0216 370.512 32.0087C371.419 32.0036 372.565 31.7085 373.06 31.3527C373.837 30.7936 373.827 30.7479 372.983 31.0154C372.446 31.1855 371.693 31.0108 371.31 30.6273C370.779 30.0971 370.503 30.1065 370.157 30.6665C369.836 31.1851 369.178 31.2464 367.934 30.8738C364.773 29.9272 364.069 29.507 364.069 28.5685C364.069 27.7735 364.861 27.7007 369.763 28.0453C373.496 28.3077 375.457 28.235 375.457 27.8341C375.457 26.6541 377.121 27.2368 377.562 28.5712L378.007 29.9199L378.273 28.5712C378.418 27.8295 378.924 27.2225 379.395 27.2225C379.867 27.2225 380.253 26.8989 380.253 26.5032C380.253 25.9438 380.413 25.9438 380.972 26.5032C381.39 26.9217 383.396 27.2225 385.767 27.2225C390.053 27.2225 391.059 27.9888 388.201 29.0754C386.716 29.6401 384.133 29.4804 381.302 28.6487C380.725 28.4793 380.254 28.5611 380.256 28.8305C380.261 29.3837 383.629 31.4185 384.54 31.4185C384.866 31.4185 385.512 31.7969 385.975 32.2594C386.696 32.9809 386.69 33.1484 385.932 33.4394C385.446 33.6259 385.048 33.4872 385.048 33.1312C385.048 32.7127 384.286 32.6269 382.891 32.8885C381.381 33.1718 380.857 33.0941 381.144 32.6292C381.37 32.2641 381.229 31.5725 380.83 31.0925C380.062 30.1663 377.855 29.8828 377.855 30.7101C377.855 30.9799 376.978 32.1699 375.907 33.3545L373.959 35.5083L371.428 34.2126ZM212.417 32.894C211.378 32.284 209.908 32.1073 207.621 32.3176C205.485 32.5142 203.842 32.3447 202.952 31.8359C201.725 31.1345 202.025 31.0545 205.769 31.0848C210.45 31.1227 212.506 30.1206 209.971 29.0367C208.766 28.5217 208.942 28.475 211.007 28.761C213.702 29.1343 214.749 28.4123 213.281 27.1935C211.715 25.894 213.437 25.4906 219.008 25.8515C222.456 26.0749 224.622 25.9496 225.508 25.4757C227.204 24.5677 226.539 23.4119 224.6 23.8986C223.259 24.235 213.958 23.683 214.351 23.2904C214.631 23.0098 227.809 21.7894 236.461 21.2426C240.949 20.959 245.939 20.5634 247.55 20.3635L250.48 20L245.644 22.3226C241.111 24.5002 233.738 26.6231 230.71 26.6231C229.972 26.6231 227.853 27.4323 225.999 28.4214C224.146 29.4104 222.258 30.2196 221.803 30.2196C221.349 30.2196 219.388 31.0254 217.446 32.0103C215.504 32.9951 213.915 33.7948 213.915 33.7873C213.915 33.7798 213.241 33.3778 212.417 32.894ZM200.728 27.4176C197.823 26.7748 197.717 26.533 199.851 25.4266C202.963 23.8138 205.908 23.4004 207.247 24.3885C208.306 25.1707 208.245 25.2916 206.163 26.5199C203.994 27.8 203.113 27.9454 200.728 27.4176Z" fill="url(#paint0_linear_291_6)" fill-opacity="0.62"/>
</g>
<defs>
<linearGradient id="paint0_linear_291_6" x1="406.653" y1="20" x2="407" y2="478" gradientUnits="userSpaceOnUse">
<stop stop-color="white"/>
<stop offset="1" stop-color="white" stop-opacity="0"/>
</linearGradient>
</defs>
</svg>
