<svg width="84" height="84" viewBox="0 0 84 84" fill="none" xmlns="http://www.w3.org/2000/svg">
<path fill-rule="evenodd" clip-rule="evenodd" d="M57.273 30.5452C57.273 34.5958 55.6639 38.4804 52.7997 41.3446C49.9355 44.2088 46.0508 45.8179 42.0003 45.8179C37.9497 45.8179 34.065 44.2088 31.2008 41.3446C28.3366 38.4804 26.7275 34.5958 26.7275 30.5452C26.7275 26.4946 28.3366 22.6099 31.2008 19.7457C34.065 16.8815 37.9497 15.2725 42.0003 15.2725C46.0508 15.2725 49.9355 16.8815 52.7997 19.7457C55.6639 22.6099 57.273 26.4946 57.273 30.5452ZM49.6366 30.5452C49.6366 32.5705 48.8321 34.5128 47.4 35.9449C45.9679 37.377 44.0256 38.1816 42.0003 38.1816C39.975 38.1816 38.0326 37.377 36.6005 35.9449C35.1684 34.5128 34.3639 32.5705 34.3639 30.5452C34.3639 28.5199 35.1684 26.5776 36.6005 25.1455C38.0326 23.7134 39.975 22.9088 42.0003 22.9088C44.0256 22.9088 45.9679 23.7134 47.4 25.1455C48.8321 26.5776 49.6366 28.5199 49.6366 30.5452Z" fill="#C5AFFF"/>
<path fill-rule="evenodd" clip-rule="evenodd" d="M42 0C18.8045 0 0 18.8045 0 42C0 65.1954 18.8045 84 42 84C65.1954 84 84 65.1954 84 42C84 18.8045 65.1954 0 42 0ZM7.63636 42C7.63636 49.98 10.3587 57.3262 14.9215 63.1604C18.1258 58.9523 22.2596 55.5421 27 53.1961C31.7404 50.8501 36.959 49.6318 42.2482 49.6364C47.4689 49.6314 52.6219 50.8182 57.3145 53.1063C62.0071 55.3943 66.1155 58.7233 69.3267 62.8396C72.635 58.5007 74.8625 53.4363 75.8249 48.0655C76.7873 42.6948 76.4569 37.172 74.8612 31.9543C73.2654 26.7366 70.4501 21.9738 66.6482 18.0601C62.8463 14.1465 58.1671 11.1944 52.9978 9.44812C47.8285 7.70188 42.3177 7.21167 36.9213 8.01808C31.5249 8.82448 26.3981 10.9043 21.9651 14.0855C17.5321 17.2666 13.9204 21.4577 11.4287 26.3118C8.93702 31.166 7.63705 36.5437 7.63636 42ZM42 76.3636C34.1114 76.3755 26.461 73.6617 20.3433 68.6815C22.8057 65.1563 26.0833 62.2781 29.8971 60.2917C33.7109 58.3054 37.9481 57.2697 42.2482 57.2727C46.4946 57.2693 50.6806 58.2791 54.4584 60.2182C58.2363 62.1572 61.497 64.9696 63.9698 68.4218C57.8046 73.5638 50.028 76.3749 42 76.3636Z" fill="#C5AFFF"/>
</svg>
