<svg width="416" height="349" viewBox="0 0 416 349" fill="none" xmlns="http://www.w3.org/2000/svg">
<path d="M120.643 0.74902L159.965 0.74902L291.001 139.749L374.001 139.749C385.007 139.749 395.563 143.41 403.346 149.927C411.129 156.444 415.501 165.283 415.501 174.499C415.501 183.715 411.129 192.554 403.346 199.071C395.563 205.588 385.007 209.249 374.001 209.249L288.822 209.249L157.786 348.249L120.664 348.249L178.972 209.249L83.501 209.249L42.001 261.374L0.500978 261.374L42.001 174.499L0.50098 87.624L42.001 87.624L83.501 139.749L180.715 139.749L120.643 0.74902Z" fill="#C5AFFF"/>
</svg>
