<svg width="62" height="61" viewBox="0 0 62 61" fill="none" xmlns="http://www.w3.org/2000/svg">
<path d="M20.2887 5.24992L25.0707 5.24992L41.0065 25.4378L51.1005 25.4378C52.439 25.4378 53.7227 25.9696 54.6692 26.9161C55.6157 27.8626 56.1475 29.1463 56.1475 30.4848C56.1475 31.8234 55.6157 33.1071 54.6692 34.0536C53.7227 35.0001 52.439 35.5318 51.1005 35.5318L40.7416 35.5318L24.8057 55.7197L20.2912 55.7197L27.3822 35.5318L15.7716 35.5318L10.7246 43.1023L5.67767 43.1023L10.7246 30.4848L5.67767 17.8674L10.7246 17.8674L15.7716 25.4378L27.5942 25.4378L20.2887 5.24992Z" fill="#0E0E0E"/>
</svg>
