<svg width="45" height="51" viewBox="0 0 45 51" fill="none" xmlns="http://www.w3.org/2000/svg">
<path d="M15.5457 8.13225C14.8252 7.4118 13.6572 7.4118 12.9367 8.13225L1.19631 19.8727C0.475858 20.5931 0.475858 21.7612 1.19631 22.4816C1.91676 23.2021 3.08484 23.2021 3.80529 22.4816L14.2412 12.0457L24.6771 22.4816C25.3976 23.2021 26.5657 23.2021 27.2861 22.4816C28.0066 21.7612 28.0066 20.5931 27.2861 19.8727L15.5457 8.13225ZM16.086 50.0229L16.086 9.43674L12.3964 9.43674L12.3964 50.0229L16.086 50.0229Z" fill="#C5AFFF"/>
<rect x="16.0864" y="0.827637" width="15.9885" height="27.0575" fill="#171717"/>
<path d="M29.5402 50.0977C30.2607 50.8182 31.4288 50.8182 32.1492 50.0977L43.8896 38.3573C44.6101 37.6369 44.6101 36.4688 43.8896 35.7483C43.1692 35.0279 42.0011 35.0279 41.2806 35.7483L30.8447 46.1843L20.4088 35.7483C19.6884 35.0279 18.5203 35.0279 17.7998 35.7483C17.0794 36.4688 17.0794 37.6369 17.7998 38.3573L29.5402 50.0977ZM28.9999 8.20703L28.9999 48.7932L32.6896 48.7932L32.6896 8.20703L28.9999 8.20703Z" fill="white"/>
</svg>
