<svg width="256" height="46" viewBox="0 0 256 46" fill="none" xmlns="http://www.w3.org/2000/svg">
<path d="M255.061 24.0607C255.646 23.4749 255.646 22.5251 255.061 21.9394L245.515 12.3934C244.929 11.8076 243.979 11.8076 243.393 12.3934C242.808 12.9792 242.808 13.9289 243.393 14.5147L251.879 23L243.393 31.4853C242.808 32.0711 242.808 33.0208 243.393 33.6066C243.979 34.1924 244.929 34.1924 245.515 33.6066L255.061 24.0607ZM-7.95065e-08 24.5L254 24.5L254 21.5L7.95065e-08 21.5L-7.95065e-08 24.5Z" fill="white"/>
<rect x="93" width="68" height="46" fill="#0E0E0E"/>
<path d="M107.847 34V14.0017H105.299L106.062 11.2747H110.574V34H107.847ZM137.259 23.9035V34H134.532V24.5041C134.532 23.6816 134.332 22.9349 133.931 22.264C133.531 21.593 132.995 21.0628 132.324 20.6732C131.653 20.2728 130.907 20.0726 130.084 20.0726C129.273 20.0726 128.526 20.2728 127.844 20.6732C127.173 21.0628 126.637 21.593 126.237 22.264C125.837 22.9349 125.636 23.6816 125.636 24.5041V34H122.909V9.65143H125.636V19.7967C126.21 19.0392 126.935 18.4386 127.812 17.9949C128.688 17.5404 129.64 17.3131 130.669 17.3131C131.881 17.3131 132.984 17.6107 133.98 18.2059C134.986 18.7903 135.782 19.5802 136.366 20.5758C136.961 21.5714 137.259 22.6806 137.259 23.9035ZM140.505 34V17.7676H143.232V19.7967C143.806 19.0392 144.531 18.4386 145.407 17.9949C146.284 17.5404 147.236 17.3131 148.264 17.3131C148.892 17.3131 149.498 17.3943 150.082 17.5566L148.978 20.2836C148.535 20.143 148.102 20.0726 147.68 20.0726C146.868 20.0726 146.122 20.2728 145.44 20.6732C144.769 21.0628 144.233 21.593 143.833 22.264C143.432 22.9349 143.232 23.6816 143.232 24.5041V34H140.505Z" fill="white"/>
</svg>
