<svg width="77" height="77" viewBox="0 0 77 77" fill="none" xmlns="http://www.w3.org/2000/svg">
<path d="M28.0729 13.6354C28.0729 10.0742 30.9283 7.21875 34.4896 7.21875C38.0508 7.21875 40.9063 10.0742 40.9063 13.6354C40.9063 17.1967 38.0508 20.0521 34.4896 20.0521C30.9283 20.0521 28.0729 17.1967 28.0729 13.6354ZM42.5104 52.9375C42.5104 58.2313 38.1792 62.5625 32.8854 62.5625C27.5917 62.5625 23.2604 58.2313 23.2604 52.9375C23.2604 49.3763 25.2175 46.3283 28.0729 44.66V37.73C21.5921 39.7833 16.8438 45.7829 16.8438 52.9375C16.8438 61.7925 24.0304 68.9792 32.8854 68.9792C41.7404 68.9792 48.9271 61.7925 48.9271 52.9375H42.5104ZM50.5313 43.3125H37.6979V27.2708C37.6979 25.5063 36.2542 24.0625 34.4896 24.0625C32.725 24.0625 31.2813 25.5063 31.2813 27.2708V46.5208C31.2813 48.2854 32.725 49.7292 34.4896 49.7292H48.7987L54.9587 58.9692C55.9533 60.445 57.9425 60.83 59.4183 59.8675C60.8942 58.8729 61.2792 56.8838 60.3167 55.4079L53.2263 44.7563C52.6167 43.8579 51.59 43.3125 50.5313 43.3125Z" fill="#C5AFFF"/>
</svg>
